<!--Generator: Adobe Illustrator 18.0.0, SVG Export Plug-In . SVG Version: 6.00 Build 0)--><!DOCTYPE svg PUBLIC "-//W3C//DTD SVG 1.1//EN" "http://www.w3.org/Graphics/SVG/1.1/DTD/svg11.dtd"><svg xmlns="http://www.w3.org/2000/svg" width="128" height="128"><path d="M60.2 80.7l-7.6 7.6c-3.2 3.2-3.2 8.3 0 11.4l1.9 1.9c3.2 3.2 8.3 3.2 11.4 0l7.6-7.6 28.6 28.6c3.2 3.2 8.3 3.2 11.4 0l9.5-9.5c3.2-3.2 3.2-8.3 0-11.4L94.5 73l7.6-7.6c3.2-3.2 3.2-8.3 0-11.4l-1.9-1.9c-3.2-3.2-8.3-3.2-11.4 0l-7.6 7.6-21 21zM32.5 53l-7.6 7.6c-3.2 3.2-3.2 8.3 0 11.4l1.9 1.9c3.2 3.2 8.3 3.2 11.4 0l7.6-7.6 21-21 7.6-7.6c3.2-3.2 3.2-8.3 0-11.4l-1.9-1.9c-3.2-3.2-8.3-3.2-11.4 0L53.5 32 24.9 3.4C21.7.2 16.6.2 13.5 3.4L4 12.9C.8 16.1.8 21.2 4 24.3L32.5 53z"/></svg>