<!--Generator: Adobe Illustrator 18.0.0, SVG Export Plug-In . SVG Version: 6.00 Build 0)--><!DOCTYPE svg PUBLIC "-//W3C//DTD SVG 1.1//EN" "http://www.w3.org/Graphics/SVG/1.1/DTD/svg11.dtd"><svg xmlns="http://www.w3.org/2000/svg" width="128" height="128"><path d="M122 66.2c0-18-14.2-32.6-32-33.3L89.9 17C89 9 70.6 1.6 48 1.6S6.9 9 6.1 17L6 108.6v1.1c0 8.9 18.8 16 42 16s42-7.2 42-16v-.5c0-.2.1-.4.1-.6v-9.1c17.7-.7 31.9-15.3 31.9-33.3zm-74-57c15.7 0 28.4 3.9 28.4 8.6 0 4.8-12.7 8.6-28.4 8.6s-28.4-3.9-28.4-8.6c0-4.8 12.7-8.6 28.4-8.6zm-25 95.2c0 2-1.3 4.6-3.3 4.6h-.2c-2 0-3.5-2.5-3.5-4.6V37.7c0-2 1.5-2.7 3.5-2.7h.2c2 0 3.3.7 3.3 2.7v66.7zm29 6c0 2-1.9 4.6-3.9 4.6h-.2c-2 0-3.8-2.6-3.8-4.6V43.6c0-2 1.9-2.6 3.8-2.6h.2c2 0 3.9.6 3.9 2.6v66.8zm28-59.1V104.5c0 2-1.6 4.6-3.5 4.6h-.2c-2 0-3.2-2.5-3.2-4.6V37.7c0-.4.1-.7.1-1 .4-1.3 1.5-1.8 3.1-1.8h.7c1.7.1 3 .9 3 2.7v13.7zm10 32.2V49c8.9.7 16 8.1 16 17.2s-7.1 16.6-16 17.3z"/></svg>