<!DOCTYPE svg  PUBLIC '-//W3C//DTD SVG 1.1//EN'  'http://www.w3.org/Graphics/SVG/1.1/DTD/svg11.dtd'><svg viewBox="0 0 1674.1 1096.92" xmlns="http://www.w3.org/2000/svg"><path d="M1056.1 54.887c2.42-.48 4.63-1.54 6.85-2.6.33 2.5-.75 4.71-2.14 6.69-1.61-.13-3.19-.29-4.76-.48.02-.9.04-2.71.05-3.61z"/><path d="M953.86 57.197c1.87-1.02 3.7-2.18 5.73-2.9.82 1.73 2.63 3.27 2.43 5.34-1.48 2-4.09 3.68-2.74 6.51 1.48-1.29 2.68-2.85 3.96-4.35 3.45-2.99 8.3-2.21 12.52-2.33a63.104 63.104 0 0 1-3.32 5.07l-1.63.44c1.09 2.52-1.03 4.37-1.91 6.53 1.59.12 3.19.19 4.82.23-.37-1.65-1.24-3.08-2.09-4.5.68-2.91 3.98-3.55 5.95-5.38.68.3 2.03.92 2.71 1.22.07 2-.12 3.99-.24 5.99 1.34-.76 2.73-1.53 4.08-2.32.03-1.66.11-3.32.2-4.98 1.44-.03 2.88-.02 4.34.02.64 1.41 1.29 2.81 1.94 4.23 2.42-.73 4.8-1.55 7.24-2.28.9.62 1.8 1.24 2.71 1.87 2.16-1.65 4.43-.72 6.52.58-.07-.98-.2-2.93-.27-3.91.87.35 1.75.7 2.64 1.07 1.49.65 2.99 1.29 4.51 1.89.42-1.34.87-2.69 1.3-4.03 1.6-.42 3.17-.92 4.77-1.44.45 1.01.91 2.03 1.37 3.05 1.45-.83 2.85-.92 4.2-.28l.35.11c.6 2.43 1.22 4.86 1.26 7.38 1.9-1.49 4.26-2.16 6.35-.55.37.08 1.11.25 1.48.33-.84-1.6-1.6-3.25-2.32-4.91.93-.16 2.8-.48 3.73-.63-.77-.92-1.54-1.82-2.31-2.7l-.28-1.61c2.03-.25 3.69-1.29 4.82-3.02.39-.06 1.18-.19 1.58-.25 1.69 1.57 2.9 3.88 5.33 4.43l.64-3.58c1.18.51 2.42 1.05 3.64 1.55.4-.63 1.18-1.88 1.58-2.51.98.09 1.99.19 3 .31.84 1.32 1.75 2.62 2.7 3.89 2.13-.97 4.23-2.09 6.61-2.33.14 1.48.31 2.97.52 4.45 1.53.69 2.33-.9 3.3-1.76l1.23-.36c0 1.63.02 3.26.08 4.89.77.1 2.32.28 3.09.38.1.72.21 1.45.34 2.18-1.07.49-2.13.98-3.16 1.49-.28 2.19-.43 4.39-.28 6.6-1.6.45-3.35.63-4.66 1.73l.72 3.78c-1.69 2.08-3.8 3.75-5.93 5.34-.03.45-.08 1.35-.11 1.8.41-.06 1.24-.17 1.66-.23 1.29-1.32 3-1.88 4.82-2.08.23-.47.71-1.4.94-1.87 1.95-.46 3.91-.87 5.91-1.16l.04-3.23c2.15.11 4.3.28 6.47.5-.56 3.76 2.84 6.01 6.2 6.15.14-.8.43-2.39.57-3.18.68.02 2.03.04 2.71.06.95 1.03 1.95 2.04 2.97 3.03l-.12 1.94c-1.45.06-2.88.1-4.3.13.04.72.1 1.44.17 2.16 2.83-.04 5.38 1.16 6.73 3.73 1.12-1.3 1.86-3.39 3.93-3.33.6.81 1.78 2.42 2.38 3.23.45-1.38.92-2.76 1.4-4.14 1.16.04 2.33.09 3.52.16.02 1.71-.01 3.41-.01 5.13l.73-.04c.49.95 1.03 1.88 1.61 2.81 1.15-.44 2.36-.87 3.55-1.26.05.53.13 1.58.17 2.1-1.35 1.56-2.42 3.33-3.3 5.18-3.17.89-6.3 1.97-9.57 2.35l.22.95-1.25-.34-.2.59c2.01.1 4.03.22 6.06.41.11 1.81.06 3.62.28 5.42 1.46 1.89 4.08 2.37 5.51 4.29 1.2 2.09-.46 4.12-1.03 6.1 3.84-.4 7.62-1.16 11.33-2.26.05-.76.12-1.51.2-2.27-1.56-2.32-3.25-4.78-3.42-7.65 1.17-.82 2.37-1.66 3.53-2.52.82-.01 1.66-.02 2.51-.02.61 1.35 1.23 2.69 1.85 4.06 1.76.03 2.89-1.37 4.17-2.38 1.92 1.91 2.89 4.4 2.39 7.12-.34.1-1.01.29-1.35.38 2.77 1.45 4.93 3.71 5.56 6.86.32 0 .96-.01 1.29-.02.65-2.26 1.56-4.44 2.69-6.51 1.02.48 2.03.97 3.07 1.48 1.44-.48 2.87-.99 4.4-1.29 1.57 2.01.02 5.32 2.68 6.66 1.09-2.16 2.39-4.21 4.02-6.01 1.21-1.85 3.09-2.05 5.11-1.47 2.59 3.06 3.17 7.06 3.75 10.89l-3.6.32c.44 2.71 2.54 4.62 3.9 6.89 1.56-.06 3.14-.15 4.73-.27-.97-1.15-1.9-2.25-2.92-3.32-.11-.38-.34-1.13-.45-1.5 1.55.44 3.08.93 4.72 1.11.33-1.89.29-3.81.4-5.72 2.36-.83 4.55-2.05 6.72-3.3.96.52 1.07 1.59 1.37 2.54-1.12 1-2.22 1.99-3.35 2.94.04 1 .1 2.01.19 3.02-.57.88-1.7 2.63-2.26 3.51 3.01.13 6.07.21 9.1.01.03.47.08 1.41.11 1.89-.37.35-1.13 1.06-1.5 1.42l.52 2.61 1.15-.14c-.09.42-.27 1.26-.36 1.67-2.67 1.92.23 3.84 1.39 5.7 3.05-.35 6.13-.15 9.2-.29 1.88-1.92 4.76-3.33 7.1-1.24.51-.01 1.51-.04 2.01-.05-.47-.23-1.42-.7-1.9-.93.82-1.4 1.71-2.79 2.7-4.1.96.66 1.91 1.37 2.83 2.13.06 1.72-.41 3.41-.61 5.1 2.04-.21 4.14-.29 3.62 2.41.56-.16 1.67-.47 2.23-.63-.43-.27-1.31-.83-1.75-1.11 1.22-2.79 3.62-4.75 5.88-6.67 1.27-.3 2 1.1 2.99 1.67.88.57 1.77 1.15 2.67 1.73-2.12 2.06-3.95 4.4-3.03 7.56l-2.11.78c1.57.44 3.24.89 4.32-.8.62.22 1.29.46 1.95.69-.42.35-1.28 1.05-1.7 1.4l-1.65-.1c.58 1.91 1.3 3.79 1.9 5.71-1 1.88-2.82 2.99-4.61 3.99-.13 1.15-.23 2.3-.31 3.46 1.46-.13 3.36.88 4.46-.51 1.07-1.42 2.7-1.74 4.39-1.76.11.83.34 2.48.45 3.3 3.71-.31 7.38-.99 11.11-1.16 1.86.72 3.49 1.91 5.27 2.85.61-1.59 1.28-3.16 1.89-4.75 2.02.59 5.15 2.26 6.02-.77 1.27 1.72 2.26 4.5 4.94 3.72 2.96.32 4.48-2.37 4.88-4.91l5.39-.12c.64 2.12.73 4.76 3.04 5.89.53-2.34.52-4.95 2.15-6.87 1.68.85 3.38 1.74 5.07 2.64-.74 1.83-1.6 3.6-2.32 5.44 1.49-.36 3.08-.74 4.61-1.1-.02 2.36-.46 4.68-.65 7.03 1.28-.81 2.34-1.87 3.32-3.03 1.72.06 3.37.52 4.51 1.93 2.08 1.39 4.32 2.59 6.9 2.79-.45 3.02-2.57 5.35-5.11 6.85-.09.45-.28 1.35-.38 1.8 1.97-.85 3.91-1.75 5.91-2.57.17 1.71.3 3.41.46 5.13.94.43 1.93.86 2.91 1.29-.06-2.06-.53-4.06-1.21-5.98 3.04-3.46 6.08-6.92 8.56-10.82.52-.1 1.54-.28 2.05-.38 1.33 1.96 2.36 4.18 4.3 5.66.04.73.11 1.46.2 2.2-2.47 1.86-3.71 6.13-7.43 5.42-.53-1.39-.86-2.87-1.2-4.29-2.8 1.65-.58 4.94-.52 7.39l2.29.1-.06-1.07c1.2-.01 2.41-.01 3.66-.02.02.87.07 1.74.15 2.61-3.33.19-7.78-1.36-9.65 2.31-1.83-.1-3.65-.31-5.43-.45l-.12 3.32 1.19-.02c-.02.47-.04 1.41-.06 1.87l-1.2-.01c.08.55.24 1.65.31 2.2-.18.04-.53.13-.71.18.27-3.03-2.75-2.46-4.78-2.65-.14 2.04.75 3.33 2.67 3.87-.34 1.38-.69 2.75-1.05 4.12-1.07.32-2.12.66-3.15 1.02.02.64.06 1.94.07 2.58 2.05-.3 3.51-1.68 4.87-3.15l.44 3.77 1.35.24c.03-1.34.09-2.68.18-4.01 1.71.09 3.98-.75 5.08 1.1.16 1.66-.17 3.31-.19 4.98 2.81.26 5.64.06 8.42-.51-.05 1.05-.16 3.15-.21 4.2.29.01.88.03 1.17.03l-.24 1.14.81-.03c.87 1.63 1.75 3.24 2.62 4.89l-1.68.88 3.32.15c1.51-1.72 4.22-3.19 6.01-.95l-1.16 2.83c-.75.55-1.48 1.11-2.18 1.67.11.72.34 2.16.45 2.89.95-.83 1.79-1.69 2.75-2.54.79.07 2.38.23 3.17.31-.06 2.12.28 4.26 2.13 5.57.38-2.19-.87-4-1.76-5.86.47-1.88.72-3.81 1.16-5.7 1.28.24 2.58.49 3.89.75 1.5-.84 2.94-1.82 4.45-2.68 1.61 3.08.12 6.12-1.52 8.77.73-.08 2.19-.25 2.92-.33-.54 1.28-1.08 2.56-1.52 3.87 2.1.7 4.37 1.14 6.32 2.27.37 4.39 6.23 6.16 4.83 10.89-2.4 1.03-6.68.51-6.28 4.19 1.75.08 3.51.11 5.31.14.14.78.42 2.34.57 3.12 1.5-.17 3.03-.34 4.58-.46-.11.83-.32 2.48-.43 3.3.9.07 2.7.19 3.6.26-.08 1.23-.14 2.47-.2 3.72-2.13.6-4.34.81-6.43 1.45-1.87 1.95-1.12 5.09-1.68 7.57-.91-.03-1.8-.06-2.68-.08-.81-.57-1.6-1.14-2.37-1.7-2.12 1.07-4.51 1.14-6.8 1.28.8 3.06-1.83 5-2.22 7.77 1.72-.87 3.37-1.9 5.26-2.45-.07-1.26-.5-2.54-.54-3.77 1.37.19 2.75.43 4.15.7.06.56.18 1.66.23 2.21-1.18.39-2.33.81-3.47 1.26 1.35 1.24 2.73 2.58 4.03 3.93 1.43-.58 2.86-1.36 4.46-1.52.48 2.81 1.12 5.57 2.7 8-.63 1.45-1.51 2.77-2.22 4.16.91 0 2.74.01 3.65.01.18 1.59.38 3.18.6 4.77 2.7.19 4.97 1.68 6.47 3.91 1.67-.33 3.34-.78 5.07-.89.37 1.33.65 2.72.99 4.08-.2-1.57-.38-3.14-.54-4.71 1.02.03 3.05.08 4.07.1.48 1.84.64 3.75.21 5.63 1.13.57 2.26 1.15 3.4 1.76-1.74 2.21-3.93 4-5.81 6.08.55.47 1.16.98 1.76 1.48a59.89 59.89 0 0 1 3.23-3.35c2.27 1.62.7 4.23.32 6.33 2.26.03 4.9-.59 6.48 1.57-3.09 2.08-6.87 2.84-9.58 5.53-1.09-.71-2.37-1.29-3.7-.92l-.04-1.22-1.2.41-.04 1.68c1.43-.34 2.95.04 4.03 1.13 1.69 1.61 4.09 2.06 6.16 3.04.07 1.07.14 2.14.23 3.22-3.67.75-6.76-2.39-10.52-1.15l.46-1.39-1.19.22-.56-1.59c-.16.76-.48 2.27-.63 3.02-2.51 2.08-6.4 3.37-6.08 7.31 1.03-.02 3.09-.07 4.12-.1-.76 1.79-1.54 3.56-2.32 5.34 4.07.21 7.95 1.52 11.95 2.22-.37 1.84-.93 3.65-1.56 5.42-1.36.11-2.7.24-4.02.4.11 2.05.27 4.11.65 6.13.85 1.15 1.72 2.29 2.61 3.44 1.12.44 2.28.93 3.42 1.44.39 1.13.81 2.27 1.27 3.4-1.53 3.88-2.22 8.01-1.55 12.15-.44.62-.86 1.25-1.27 1.89.43.48 1.28 1.44 1.71 1.92.56-1.08 1.08-2.18 1.65-3.27.74-.16 2.23-.49 2.97-.65.91 3.49 4.11 2.56 6.85 2.33.01 1.3.02 2.6.04 3.91-1.34.14-2.67.29-3.99.45.14 2.25.03 4.5-.44 6.72 2.52-.5 4.88.14 6.64 2.06 2.57.07 5.16.16 7.76.03l-.33 1.4c2.54-.4 5.02-1.15 7.58-1.53-.53 2.34-1.47 4.55-2.08 6.87h1.37c1.35 2.9 2.63 6.14 5.65 7.72-.18 1.14-.34 2.29-.47 3.44.29.06.87.19 1.16.25-.13-1.24-.23-2.48-.31-3.71 2.73-1.04 6.2-2.77 8.64-.09-.47 2.41-2 4.62-1.49 7.18 2.19.39 3.94 1.79 5.55 3.26 1.65-.68 3.34-1.31 5.03-1.92.76.43 1.55.88 2.36 1.33.97-.59 2.01-1.15 3.03-1.69 1.17 2.29 1.44 4.83 1.27 7.37-1.35.43-2.67.87-3.98 1.3-.06.77-.19 2.33-.26 3.1-.33-.53-1-1.59-1.34-2.12-2.24-.79-4.59-1.45-6.94-1.55 1.35 1.47 2.89 2.88 4.21 4.43-1.23 1.36-2.47 2.73-3.44 4.28 1.02.83 2.06 1.67 3.08 2.56 2.07-.21 4.15-.55 6.23-.93.52-1.06 1.06-2.11 1.6-3.15 1.07 0 2.17.01 3.28.04-.33 1.37-.67 2.74-1 4.12 2.71-.33 4.75 1.34 5.74 3.78-4.35 1.37-8.96.37-13.3 1.55-1.15-.49-2.28-.97-3.38-1.45-.35 2.77 2.01 4.54 3.57 6.47-.36 1.79-.54 3.6-.31 5.43l-.99 1.47c1.58.78 3.17 1.58 4.79 2.34.48-1.73.99-3.45 1.55-5.16 1.1.81 1.93 2.25 3.26 2.77 1.35-.92 2.57-2.03 3.83-3.1 1.45.01 2.92.04 4.41.08.01 1.88.06 3.77.14 5.66 1.19-.42 2.35-.82 3.61-1.18.41.8 1.23 2.39 1.64 3.18-1.36.16-2.7.32-4.03.49-.04.36-.11 1.08-.15 1.45 1.4.17 3.32-.73 4.39.6 1.98 1.69 4.24-1.02 6.49-.64-.44 3.66 1.06 7.84-1.34 11.02.12.59.35 1.78.47 2.37.81-.33 1.64-.66 2.49-.99 2.86.11 5.72.17 8.61.07.18 1.32.44 2.68.67 4.02 1.49-.65 2.92-1.55 4.61-1.65 1.43.48 2.78 1.23 4.16 1.89.17.29.51.85.68 1.14-.61.27-1.83.82-2.44 1.09-3.23 1.4-6.7 1.91-10.17 1.42 1.25 1.3 2.85 2.52 2.93 4.52-4.32.68-8.26 3.41-12.81 2.29.25-1.27.51-2.55 1.1-3.71l-1.16-2.32c-.71.06-1.4.13-2.06.21-.76 1.91-1.75 2.35-2.99 1.3-.28-.62-.83-1.86-1.11-2.48-.89.04-1.75.08-2.59.14.44.93.88 1.85 1.36 2.79 1 .61 2.05 1.18 3.14 1.73-3.85 1.84-5.27 5.87-8.06 8.84-1.83-1.52-3.36-3.32-5.02-4.98-.53-.57-1.02-1.13-1.5-1.69.15.94.3 1.88.46 2.83 1.87 2.77 4.45 5.21 5.17 8.61-1.62-.57-3.27-1.23-4.85-1.77.37.81 1.09 2.45 1.45 3.26 1.61.85 3.14 1.82 4.7 2.8.4 1.19.87 2.4 1.29 3.62.8-1.12 1.66-2.2 2.53-3.27-.36-1.87 0-3.7.59-5.46 1.51 1.1 2.92 2.4 4.28 3.72 1.13-.24 2.29-.47 3.47-.69.19 1.7-.33 3.73 1 5.12.97-.88 2-1.69 3.1-2.42-.05.8-.16 2.42-.21 3.23l3.3-.24c.46.97.94 1.94 1.42 2.93 3.09-.08 6.58-.93 8.79 1.87 1.54-.91 3.07-1.85 4.83-2.32.06 2.09-.19 4.17-.37 6.26 1.04-.02 3.12-.07 4.16-.1.02 1.19.07 2.38.15 3.58.61-.62 1.25-1.23 1.92-1.83-1.28-1.54-3.15-3.04-1.7-5.17 1.52-.11 3.53-.74 4.4 1.04 1.34 2.72 1.5 5.83 1.4 8.82 1.28.35 2.58.7 3.91 1.07.03-.65.09-1.94.13-2.59.23-.01.69-.04.92-.05l-.3 1.24c1.73.75 3.57 1.37 5.22 2.36-.08 1.5-.21 3.01-.39 4.51.94.5 1.91 1 2.88 1.5 1.67-2.08 2.92-4.35 2.41-7.1 2.32-.13 4.65-.22 7-.24.45 1.37.91 2.74 1.4 4.13-1.05.21-2.09.45-3.09.71.77.04 2.32.11 3.1.15 1.5 1.86 3.13 3.61 4.86 5.29-1.21-2.04-2.87-3.76-4.54-5.4 1.49-1.15 2.18-2.87 2.82-4.56 2.51-.88 5.86-1.89 8.07.19 1.23 1.29 2.87 1.8 4.65 1.93-.68 2.92-.11 5.66 1.73 8.04-.74 1.73-1.38 3.49-1.99 5.27 1.63.17 3.27.36 4.95.54-.62-1.5-1.23-3-1.78-4.49.83-1.92 1.48-3.91 2.21-5.86 1.33.86 2.66 1.76 4.03 2.64.12 3.97-1.16 7.93-.21 11.88 1.54-.87 3.18-1.77 3.22-3.8-.5-.51-1.49-1.52-1.99-2.02l.09-.78.88-1.8-1.53.18c-.07-1.6.01-3.18.23-4.74 1.15-1.6 3.19-1.44 4.94-1.65.71 2.38.95 4.85 1.18 7.33l-3.36.04c-.02.77-.05 2.3-.06 3.07 1.44.01 2.9.02 4.39.06.06 2.5-.14 5.01-.44 7.51-1.36-.03-2.7-.04-4.02-.06l.06 2.24c.76.43 2.27 1.29 3.03 1.72-1.23.14-2.47.24-3.67.36.02-.45.04-1.34.06-1.79-3.62-.04-6.46-2.44-9.65-3.6-2.42.69-3.2 4.14-3.76 6.44 1.48-.4 2.88-.86 4.42-1.22-.09 1.18-.14 2.39-.21 3.59-.89.93-1.56 1.97-2.02 3.15 1.53 1.38 3.32 2.52 4.48 4.3.93.42 1.89.85 2.87 1.29-.18.35-.52 1.04-.7 1.39-1.17 1.98-.35 4.26-.29 6.41-.52-.01-1.57-.05-2.09-.07-1.8-1.36-3.67-2.63-5.73-3.52.72 1.81 1.77 3.49 2.52 5.32-.22 1.26-.82 2.41-1.21 3.63-3.14.05-4.59-2.91-6.48-4.88-.19-1.09-.34-2.16-.47-3.23-.75-.83-1.49-1.66-2.21-2.47-.47.43-1.41 1.3-1.89 1.73-1.43.45-2.76 1.13-4.16 1.57-1.51-.68-2.93-1.57-4.37-2.3-.89 2.76.61 4.78 3.09 5.8-.15 1.37-.34 2.74-.47 4.12 3.41.32 2.28 3.79 1.97 6.03l4.71.12c-.77.78-2.3 2.32-3.07 3.09 1.55 1.67 3.38.94 5.23.19 1.24.78 2.18 1.91 3.29 2.92 1.72-2.04 3.37-4.52 6.45-4.23 1.6-1.08 3.44-1.03 5.3-.73 1.57.18 2.82-1.74 4.46-1.22.31.66.94 1.98 1.26 2.64.87-.78 1.74-1.56 2.66-2.31 3.04.95 6.24.43 9.38.64 2.02.82 3.53 2.53 5.31 3.8.46-1.18.95-2.35 1.45-3.52 1.01-.11 2.06-.22 3.13-.33 2.48-2.36 5.32-.26 6.6 2.24 1.25.46 2.53.93 3.84 1.4.13 1.16.29 2.33.48 3.5 1.72 0 3.46-.01 5.22.07-1.28 2.35-2.44 4.91-4.66 6.54.11 1.06.26 2.12.44 3.2 1.59-.96 2.35-2.63 3.2-4.19 1.05-.54 2.12-1.08 3.21-1.62.3.62.9 1.87 1.21 2.49-1.81 2.08-2.29 4.69-1.79 7.37a84.29 84.29 0 0 0-3.01 3.29c-.64 2.39-1.61 4.67-2.33 7.04 2.39.29 3.39-1.26 3.87-3.29 2.36-.03 5.37.71 4.5 3.78-.68 1.29-3.48 2.42-1.92 4.07 3.88-.17 4.43-6.58 8.75-4.49-.33 1.53-.79 3.03-1.26 4.53.17 1.69.22 3.39.25 5.1l-2.52.88c-.63-.9-1.24-1.8-1.82-2.69-.63-.09-1.87-.29-2.49-.39-.08-.78-.23-2.34-.31-3.11-.8.5-2.4 1.51-3.2 2.01 1.81 1.95 4.09 3.54 5.5 5.85.43 1.61.04 3.29-.03 4.94-2.81.23-5.15-1.34-7.49-2.57-1.28 1.62-2.67 3.13-3.88 4.79-.38 1.72 1.77 3.27.89 4.91-1.35.81-2.83 1.4-4.19 2.13 1.82 2.19 5.67 3.32 4.33 6.82-1.04-.25-2.06-.5-3.05-.74-.93-.86-1.83-1.7-2.76-2.5.12 1.92.35 3.83.54 5.75-2.19.01-4.36-.08-6.52-.01-.01.97 0 1.94.03 2.93 3.29-.06 5.69 2.04 6.93 4.99.34-2.08.64-4.16 1.04-6.22 2.58.25 4.1 2.23 4.64 4.66l3.78-.28c-1.06-1.51-2.17-2.93-3.1-4.48.28-2 .74-3.96 1.08-5.94 1.71.49 3.02 1.67 4.34 2.86.49-1.12 1-2.22 1.52-3.32.43-.01 1.31-.02 1.75-.02.84 1.37 2.01 2.69 1.83 4.45-.41 2.02 1.52 3 2.72 4.25 1.23.01 2.48.04 3.75.09-.06 1.77-.16 3.54-.21 5.33 1.68-.09 3.41-.15 5.14-.18.01 1.24.03 2.49.07 3.75.34 1.3.58 2.63.79 3.97-1.13.11-2.25.22-3.34.34-.87-.43-1.68-.88-2.54-1.21-.63.89-1.21 1.82-1.73 2.77-.41.17-1.22.52-1.63.7-1.43-.98-3.02-1.67-4.75-1.36-.02.82-.06 2.47-.07 3.3 1.03.01 3.08.05 4.11.06.49 2.81-2.13 4.68-2.45 7.35 2.69-1.83 5.74-5.64 9.16-2.85 1.64-.78 3.32-1.46 5.08-2.01.64 2.63.48 5.34-.06 7.98-3.17 1.78-5.39-.63-7.69-2.41-.09 1.08-.15 2.17-.16 3.28 2.48.86 4.89 1.97 7.42 2.8-.18 3.8-4.24 2.68-6.7 2.89l.15-1.18-1.49.08c-.44.77-.86 1.55-1.26 2.33.4.15 1.21.45 1.62.6.05-.36.16-1.07.21-1.43 1.36.18 2.74.35 4.15.52 0 1.76.06 3.53.18 5.31.19-.35.58-1.05.78-1.4 2.14-1.18 4.26-2.45 5.92-4.28 1 .4 2.01.84 3.03 1.33-.04 2.32-.93 4.51-1.36 6.77h2.38c0 .47-.01 1.42-.02 1.89 1.66.51 3.33 1.04 5.04 1.5.03.9.1 1.8.19 2.73-1.2.04-2.38.09-3.54.16-1.49-1.38-3.45-1.62-5.37-1.55-3.54-1.7-7.21-3.2-11.02-4.11-.85-1.27-1.67-2.56-2.51-3.79-2.16 2.03-5.09 2.79-7.33 4.68 1.77 2.05 3.81 3.86 5.64 5.88-.87 1.84-1.76 3.68-2.63 5.52-1.42.09-2.82.12-4.2.11-1.51-1.07-3.03-2.29-5.01-1.92 1.18.52 2.31.88 3.59 1.28.98 1.4 1.83 2.87 2.68 4.39-3.79-.51-8.01 1.41-11.45-.65-.47 1.32-.7 2.72-1.12 4.07-1.13.02-2.23.05-3.31.09-2.17 1.09-4.51.83-6.75.31l.52-2.11c.37-1.1.73-2.19 1.09-3.28-3.28.83-6.91 1.08-9.38-1.63-.1.73-.31 2.19-.42 2.93-.89-.14-2.66-.42-3.54-.55-1.72 1.41-3.27 3.14-3.39 5.48 2.11-.52 3.99-1.65 5.97-2.55.25.59.75 1.75 1 2.33-1.19 1.7-1.29 3.72.03 5.39.02.9.05 1.81.11 2.74-2.54-.96-4.91-2.29-7.52-2.98a78.83 78.83 0 0 1-1.54-3.25c-.48-.04-1.42-.13-1.89-.17-.02.63-.06 1.89-.07 2.51 1.82 1.44 3.41 3.23 3.32 5.76-2.1-.57-4.46-2.4-6.16-.05.62 1.39 1.42 2.75 1.84 4.25-1.64 2.15-3.5 4.1-5.17 6.21 2.12.84 4.69 2.2 3.65 4.99-.79 1.79 1.6 2.08 2.52 3.02.05.49.16 1.49.21 1.99 1.03.41 2.05.87 3.08 1.39.12 1.26.18 2.54.17 3.83-1.76.29-3.5.42-5.08-.43-.69.31-1.36.63-1.99.96-.1.86-.17 1.73-.22 2.61.52.06 1.55.16 2.07.22l1.47-2.74c2.2.96 4.1 2.48 6.04 3.89 1.64 2.54 4.52 4.33 5.1 7.48-2.47 1.1-5.09 1.15-7.51-.01-.57-1.89-1.09-3.78-1.53-5.66-.43 1.4-.83 2.8-1.2 4.23.5 2.25.57 4.65 1.61 6.77 1.46-.49 2.88-1.32 4.47-1.47 1.73 1.48 3.15 3.27 4.69 4.97-1.33 2.1-3.54 3.14-5.82 3.85.67.66 1.36 1.33 2.07 2.01.11 2.5-1.35 4.7-3.94 4.96-2.67-1.81-1.78-5.28-1.34-7.91-.47.09-1.41.28-1.89.37.16 2.99-1.8 5.28-4.33 6.55.12 1.43.26 2.88.17 4.33l-3.32.4c-.11-1.84-.06-3.66.05-5.48-.38.12-1.12.35-1.49.47-.03 1.93-.1 3.87-.24 5.81-1.12.07-3.37.22-4.5.29.11-1.87.4-3.69.62-5.52-.04-2.12.21-4.24.47-6.32-2.47.48-3.14 3.15-4.57 4.83-.1 1.48-.15 2.99-.23 4.49-1.63.95-3.34 1.75-5.05 2.49-.03.37-.08 1.1-.1 1.47 1.64.8 3.48 1.42 4.85 2.74.49 1.19.26 2.52.38 3.79-2.79-.79-6.02-2.2-6.65-5.34-1.03.07-2.04.17-3.02.28 1.26.81 2.51 1.59 3.85 2.34-.45 1.87-1.29 3.59-2.37 5.18 1.86 1.32 3.94 2.41 5.59 4.03.95 1.64 1.52 3.51 2.7 5.07-.14 1.64-.29 3.3-.45 4.97-2.53-.87-4.99-1.88-7.45-2.88 0-.3-.01-.91-.02-1.21-.76.03-2.29.11-3.05.14-4.5-1.41-7.11-5.79-11.69-6.82l1.36 1c.92 1.98 2.04 3.89 3.47 5.58 3.92-.37 6.52 3.17 5.91 6.86-3.01.07-4.76-2.47-6.9-4.11-2.33-.63-4.7-1.04-7.02-1.62-1.26-2.16-2.07-4.76-4.2-6.24-.46-.67-.9-1.32-1.31-1.97.7 2.41 1.31 4.88 2.33 7.21-.06.65-.17 1.93-.23 2.57-1.66-1.25-3.2-2.65-4.7-4.06-.11.97-.32 2.92-.43 3.89-1.15-.07-2.26-.13-3.36-.18-.93-1.99-1.61-4.13-3.22-5.66-.06-1.84-.15-3.67-.19-5.49-.81.35-1.6.72-2.36 1.1l1.18-.1c.24.59.73 1.76.97 2.35-.48 1.34-1.06 2.62-1.4 4.03a8.916 8.916 0 0 1-2.59-4.26c-.53-.7-1.04-1.39-1.52-2.06.04-1.68.1-3.33.13-4.98l-2.49.24c.6 2.5 1.42 5 1.07 7.63-.91.07-2.72.19-3.62.26-.76-1.83-1.49-3.65-2.22-5.45.02.44.07 1.32.1 1.77-1.15 1.77-1.95 3.73-2.64 5.72-1.13-.03-2.24-.05-3.33-.05-.94.96-1.85 1.93-2.73 2.92-.8.05-1.58.12-2.34.2-.04-.61-.13-1.83-.17-2.43-1.82-2.21-1.59-4.87.5-6.75-.52.06-1.58.19-2.11.26-.55.28-1.67.84-2.23 1.12-.46 1.31-.92 2.62-1.34 3.95-.96-.12-1.91-.23-2.83-.33.41-4.08.24-8.06-1.51-11.83-2.37.16-4.63-.39-6.74-1.38.32-1.13.77-2.2 1.17-3.28-2.93-1.22-4.46-3.99-5.11-6.95l-1.81.31c.16 1.52.29 3.05.41 4.59-2.27.05-4.16-1.04-5.83-2.43-1.48.81-3 1.55-4.5 2.26-.06-.44-.16-1.32-.22-1.76-1.63-.22-3.24-.5-4.82-.74.29 1.84 1.6 4.01-.33 5.41-3.4.79-3.69-4.38-7.19-3.45.31 2.45 1.57 4.6 2.61 6.81 2.04.49 3.32 2.2 4.73 3.63.37.79.77 1.58 1.2 2.4-3.2.87-2.98 4.21-2.91 6.85-.64.29-1.92.89-2.56 1.18.48.9.96 1.78 1.5 2.69 1.4-.47 2.83-1.04 4.32-1.31 2.56 1.26 1.83 4.82-.1 6.34-1.47 2.53-4.2.4-5.92-.63-.67 1.46-1.6 2.76-2.66 3.95-.03 1.41-.02 2.85 0 4.28-2.17-.15-2.48 2.39-3.49 3.7-2.01-.16-3.61-1.32-5.19-2.4-.89 3.33-2.15 6.59-2.32 10.07-.84-.1-2.53-.31-3.37-.42.55 1.43 1.07 2.84 1.69 4.28-1.73 1.54-4.58 1.77-6.18-.07-1.92-1.25-1.03-3.65-.98-5.5-1.35-.66-2.03-1.84-2.41-3.19-1.65-.18-3.3-.3-4.86-.72-.62-2.2 1.42-3.45 2.38-5.1-.06-1.63-.2-3.22-.3-4.82a40.71 40.71 0 0 0-4.37 1.92c-1.88-.07-3.4.6-4.14 2.41-2.77 1.01-4.88-1.23-7.15-2.38-.02-1.74-.01-3.48.01-5.2-1.87-1.04-3.67-2.14-5.56-3.09a86.08 86.08 0 0 0-.94 3.68c-.96.12-1.91.21-2.84.28-1.29-1.65-2.63-3.26-4.35-4.45 1.09-2.86 4.43-4.55 4.8-7.64-1.5-1.14-3.39-1.45-5.19-1.63.94 1.06 1.94 2.09 2.97 3.11-.73.43-2.2 1.29-2.93 1.71.06 1.29.12 2.6.2 3.92-1.73-.44-3.47-.67-5.03-1.47-.89-1.24-1.2-2.73-1.61-4.13l-1.32.56c-.03 1.54-.09 3.05-.11 4.61-1.36-.28-2.69-.56-4-.84l-.2-3.5c-1.25.41-2.47.85-3.67 1.31.33 3.13-2.26 3.3-4.63 3.14.67-1.81 1.87-3.3 3.36-4.5.33-2.56.28-5.41 1.94-7.54 1.65-.73 3.48-.87 5.26-1.22-.5-.89-.99-1.77-1.44-2.64 2.09-2.01 4.92-3.22 6.56-5.7.52-2.18-1.66-2.87-3.06-3.84-.65 2.74-1.43 5.45-2.39 8.1-2.98.05-3.45-2.22-3.1-4.66-1.39-1.19-2.6-3.41-4.74-2.82-.21 2.5 1.1 4.84 1.12 7.36 1.08.52 3.32.11 3.15 1.96-.71 2.15-2.42 4.14-4.91 3.76-1.64.47-1.68-1.03-1.84-2.18 1.2-1.17 2.19-2.52 3.2-3.86-1.89 0-3.68.05-5.52.03-.76-2.16-1.48-4.3-2.45-6.35-1.62.74-3.24 1.5-4.86 2.2-1.42-.66-2.39-1.9-3.45-2.95-.54-.1-1.61-.32-2.15-.42-.76 1.03-1.5 2.08-2.2 3.16 2.58.07 5.61-.5 7.74 1.39.82 3.75-2.5 6.63-4.25 9.6 1.49.13 3 .28 4.53.43-.05 2.69-.69 5.38-2.11 7.68-3.8-.82-7.17 1.62-10.89 1.06-.76-2.97.78-5.34 2.78-7.35-1.71-.76-2.54-2.07-2.18-3.9 1.81.18 3.6.54 5.36 1.13.23-1.25.49-2.48.77-3.71-1.35-.46-2.68-.93-3.98-1.39.07-1.5.18-2.98.31-4.45-1.18-1.25-2.33-2.5-3.49-3.73.02 1.52.09 3.04.19 4.58-4.36 1.5-1.45 6.27-2.81 9.55-1.88-1.55-3.67-3.8-6.17-1.93-.05 1.39-.09 2.8-.13 4.21-2.72.69-4.9-.99-6.5-2.98-.44-.04-1.33-.12-1.77-.15 1.09 1.9 2.27 3.78 2.98 5.89-1.42.41-2.84.81-4.24 1.21-1.26 2.72-3.13 5.07-4.6 7.68 2.57.86 5.22 1.68 7.52 3.21.23 1.5-.75 2.76-1.36 4.04-2.34.08-4.62-.24-6.8-1.01-.03.15-.09.43-.12.58 4.63.3 6.73 4.85 8.4 8.54-.51-.44-1.54-1.31-2.05-1.74l-.2-.42-.58-.11a9.877 9.877 0 0 0-3.06-2.04c-1.72 1.99-3.41 4.33-6.38 3.43l.13-1.49c-.34.1-1.01.29-1.34.39.82 1.59 2.02 2.92 3.48 4 1.86-1.59 3.97-2.75 6.49-2.11.44 1.24 2.17 3.94-.33 4.11-2.1.17-4.39-.49-6.16.97-.7-.11-2.11-.32-2.81-.43-.69 1.28-1.37 2.56-1.96 3.89.92.16 2.74.47 3.66.62-.45 1.34-.72 3.83-2.65 3.69-1.1-.29-2.19-.6-3.25-.92.85 1.66 1.88 3.22 2.97 4.76 1.2.43 2.41.88 3.65 1.36.07 1.06.16 2.13.26 3.22-2.62.7-4.74-1.06-6.95-2.07l-.44 3.93c-1.34.05-2.65.1-3.94.14-.83-3.13.75-5.76 2.4-8.27-1.44.07-2.86.13-4.26.17-.42-1.33-.76-2.67-1.01-4.01 1.35-.93 2.77-1.78 4.2-2.62-.49-.75-.97-1.5-1.43-2.23.42-1.84.98-3.65 1.52-5.44-1.69.33-3.37.68-5.03 1.06-.2.44-.61 1.3-.81 1.74-1.67.35-3.21 1.08-4.77 1.7-1.16 1.11-2.03 3.8-4.05 2.9-1.94-.5-2.35-2.69-3.14-4.21-2.41.6-4.39-.45-5.64-2.5l.52-3.49-2.27.16c.29 1.08.61 2.19.92 3.3-.1 2.33 1.62 4.11 2.45 6.18 2.21-.09 6.07.85 5.16 3.83-1 3.33-5.35.57-5.84-1.86l-2.29.08c-.63-.22-1.88-.67-2.5-.9-.11-.28-.34-.82-.46-1.1-.61 1.62-1.24 3.24-1.81 4.89-2.53-.96-5.26-2.79-7.62-.44-.75 1.79-.57 4.3-2.41 5.41-1.91.41-3.88.47-5.8.68.02-.94.07-1.87.13-2.78 1.78-1 3.54-2.04 5.31-3.06-1.13-.61-2.24-1.21-3.34-1.8l-.24-2.05c.75-1.07 1.47-2.17 2.21-3.26-2.38.34-4.8 1.71-7.16.65-.43.76-.84 1.54-1.23 2.33-2.35-2.71-5.4-4.63-8.94-5.26-.07 3.16 4.19 3.98 3.8 7.28-1.94-.1-3.74-.67-5.39-1.62-.4 1.43-.79 2.88-1.18 4.33-2.97 1.1-3.79-2.64-6.55-2.23-.21 1.78-.41 3.55-.58 5.35-1.53-.12-3-.5-4.38-1.12.02 3.52-4.15 3.39-5.37.72.05 2.07.33 4.56-2.44 4.73-.38-.55-1.15-1.64-1.54-2.19-.86-.07-2.59-.2-3.46-.27.36-1.32.83-2.59 1.42-3.81-.09-.84-.17-1.67-.23-2.48.9.1 2.68.29 3.57.39-.76-1.95-1.51-3.87-2.27-5.79l1.25-1.89c-.08-1.51-.43-3.11.8-4.27-.71-.61-1.4-1.2-2.09-1.78.33 2.05.72 4.09.95 6.17-3.44-.21-5.22-2.95-5.86-5.93-.08 1.84-.11 3.67-.12 5.53-2.41.01-3.64-2.07-5.19-3.51-1.04 1.32-2.18 2.53-3.53 3.52-.6-2.26-.52-4.74-1.95-6.69-1.04-1.4-.21-3.21-.48-4.77-.74-1.44-1.74-2.71-2.4-4.16-.57-2.65.1-5.33.66-7.9 2.33-.01 4 1.45 4.08 3.88-.41.56-.8 1.13-1.17 1.72 2.15 2.47 1.65 5.71.86 8.61.51.32 1.51.96 2.02 1.28.05-1.4.16-2.88-.92-3.94.03-2.6-.02-5.23.6-7.77.14-1.77.19-3.55.52-5.29 2.62-1.06 3.42 1.38 4.31 3.27 2.06 1.08 3.15 3.08 4.29 5.03 2.83-.62.65-4.85 1.6-6.85 2.04.77 3.68 2.24 5.16 3.83-.86 1.43-1.71 2.88-2.55 4.33 1.02.57 2.05 1.15 3.22 1.45.91-1.68-.51-3.04-1.49-4.21 2.11-2.5 4.84-4.62 5.68-7.94-2.35-.73-4.96-1.28-5.96-3.81-.94-.27-1.85-.53-2.76-.76-.45-3.86-6.91-1.69-5.81-5.79 1.35-2.1 3.66-3.44 4.72-5.77-1.69.13-3.25.47-4.86.8-1.72-.85-3.57-1.38-5.38-1.86-.05-1.23-.08-2.44-.11-3.64-.72-.75-1.44-1.48-2.13-2.19-.05-.64-.14-1.93-.18-2.57-1.36-.52-2.7-1.03-4.01-1.55.15-2.38.38-4.75.14-7.12-1.28.6-2.59 1.19-3.81 1.83-.06-1.92.03-3.8.09-5.69-1.46-.1-2.91-.2-4.33-.3.02-4.12 4.28-4.5 7.41-4.92-.04-.98-.07-1.95-.07-2.91-2.33-.04-4.64.47-6.93.14-2.2-1.4-.88-4.26-1.1-6.31-.62-.02-1.84-.04-2.46-.05-.98.86-2.02 1.65-3.07 2.41.15-1.24.32-2.46.54-3.67.59-.18 1.76-.53 2.35-.71 1.3-.67.91-2.46 1.44-3.62.64-.32 1.91-.95 2.54-1.27-.45-1.02-.84-2.05-1.36-3-1.83-.12-3.69.08-5.49.14 0-2.34.13-4.66.28-6.98-.44.06-1.32.17-1.76.23.03 1.69.03 3.37.09 5.09l-3.37-.04c-1.48-2.06-.19-3.93 1.03-5.63-.67-1.29-1.41-2.62-1.33-4.1.87-.99 1.79-1.93 2.76-2.84.91.3 2.66-.44 2.93.89.98 3.8 4.36 6.41 5.07 10.29 3.21.5 4.92 3.41 7.04 5.53 1.05-.95 2.15-1.87 3.19-2.85 1.35-.96 2.7-1.93 4.06-2.89-.01-.57-.04-1.7-.05-2.27 2.6-1.65 4.97-4.21 8.38-3.25.54 2.53.16 5.1-1.53 7.13a8.27 8.27 0 0 1-.97 3.32c-1.86 1.02-3.13-1.09-4.61-1.84-.09 1.47-.12 2.96-.1 4.45 2.01.44 3.67-.88 5.62-.96 1.49.39 1.05 2.65 1.67 3.84.65.02 1.95.08 2.6.1.29.29.86.88 1.15 1.17-1.15 1.77-.99 3.81-.74 5.83.61.07 1.83.2 2.44.27-2.01.5-4.02 1.05-6 1.6.16 1.62.35 3.26.55 4.89l1.53.32c.54-1.36 1.12-2.69 1.74-4 1.1 1.28 2.2 2.63 3.18 4.05 1.03 0 2.09 0 3.16.02.07.72.21 2.16.27 2.88 1.28-.82 2.65-1.58 3.97-2.38-.02 1.44-.03 2.89-.03 4.35 2.9 1.68 3.62-1.37 4.37-3.1.92-2.76 3.46-4.79 6.27-5.4-.13 2.25 1.35 1.24 2.22.16 1.16.53 2.34 1.05 3.45 1.75.04 1.24.04 2.49 0 3.75-1.19-.15-2.35-.28-3.48-.44-.74-1.26-1.44-2.52-2.11-3.78-1.13 2.56-1.7 6.94-5.56 6.27-.7.47-1.38.94-2.06 1.42.05 3.47-5.43 4.21-4.15 7.66l1.56 2.16c1.04-1.23 2.1-2.46 3.1-3.73.52.55 1.05 1.1 1.62 1.68.02 1.9.01 3.81-.01 5.74 3.39 1.87.43 4.84-.42 7.35.54.13 1.64.4 2.18.53.89-1.88.98-5.17 3.67-5.26 1.89-.88 2.53 1.84 3.79 2.74l-.32 2.84c3.21 1.74 3.02 6.17 3.25 9.4-2.6-.53-5.21-.98-7.85-1.02l.65-1.55c-.26-.13-.79-.41-1.05-.55.03.53.1 1.59.13 2.12.79.57 1.6 1.15 2.42 1.74l-3.36 2.4c1.37-.44 2.54-1.22 3.78-1.94 1.33.31 2.68.68 4.04 1.07.15 1.66.31 3.36.44 5.06 1.09.03 2.21.07 3.35.13l1.65 3.15c1.23-.23 2.48-.45 3.72-.79-.15-2.21-.52-4.41-.46-6.62-1.6-.02-3.16-.03-4.73-.05 0-.89.03-1.77.07-2.65 1.7-.91 3.38-1.88 4.85-3.18l-2.18-.2c.11-.55.32-1.65.43-2.2-1.25-.01-3.76-.04-5.02-.06 2.07-.57 4.77-1.47 6.43.38 1.4-1.23 3.09-1.98 4.89-2.45 1.56-.96 3.27-1.61 5.03-2.18-.83-1.96-2.45-3.59-2.77-5.72.2-1.85 1.06-3.5 1.68-5.21-1.29.99-2.56 1.99-3.84 2.99.37 1.73.44 3.84 2.57 4.39-.3 1.49-.63 2.99-1.23 4.41-1.73-1.19-3.77-1.32-5.75-1.5-.57-1.04-1.11-2.07-1.63-3.1-1.83 2.46-4.08 5.13-7.5 4.59-.11-1.36-.2-2.71-.26-4.05-.96-.67-1.9-1.33-2.84-1.96.95-1.49 2.3-2.51 4.04-3.04.22-1.55-.66-2.76-1.54-3.9-1.01 2.02-1.58 5.04-4.6 3.89l-.24-4.02c1.02-.47 2.05-.93 3.1-1.37 1.02-.93 2.07-1.84 3.13-2.73 1.57-.43 3.11-1 4.72-1.34 2.02.76 3.77 1.89 5.82 2.71-.62-1.14-1.27-2.25-1.96-3.31-.08-.64-.26-1.92-.34-2.56 2.79-2.05 6.04-4.41 6.1-8.26-.53-1.28-1.37-1.92-2.51-1.92-.59.58-1.15 1.19-1.69 1.82.03-.99.08-1.98.13-2.95.4-.16 1.18-.48 1.58-.65 1.82-1.17-1.13-3.56-1.58-5.13.35-.91.7-1.8 1.06-2.69-1.69-2.95-3.07-6.13-5.77-8.32-1.22-2.41-2.7-4.64-4.32-6.77.03-1.86.06-3.7-.05-5.53-.67-.02-2-.04-2.66-.06-1.53-1.3-3.3-2.32-5.35-2.27 1.7-.87 2.43-2.34 2.19-4.4-2.25-.27-4.32-1.16-6.32-2.1l-.2 3.5c3.58-.45 3.51 3.83 3.3 6.25-1.28-.01-2.53-.05-3.77-.11-.15-1.44-.26-2.87-.34-4.29-1.49.16-2.95.34-4.4.52-.15-.87-.44-2.59-.59-3.45-.77.63-2.3 1.9-3.07 2.53-1.68-1.24-3.22-2.65-4.63-4.16-.88-.19-1.74-.34-2.58-.47 1.88.85 3.46 2.16 4.9 3.66-1.11.48-3.33 1.43-4.45 1.91l1.2-1.28c-.73-.04-2.18-.14-2.9-.19.11-1.3-1.11-4.26-2.41-2.14.52 1.78 2.8 2.51 4.13 3.76 1.4 2.38 3.71 4.27 4.1 7.18-.46.04-1.38.11-1.85.15-.52-.28-1.57-.85-2.09-1.13-.15-.66-.46-1.99-.61-2.65-2.22-.55-4.47-.11-6.67.2-.96-1.45-2.44-2.21-3.97-2.82.21-1.87.54-3.72.95-5.53-.8-.02-1.58-.02-2.34-.01-.43.58-1.29 1.74-1.73 2.33-1.24-.19-2.34-.8-3.47-1.24-.91 1.29-1.82 2.59-2.72 3.9-2.64-.83-5.37-1.46-7.6-3.17-.1-.57-.29-1.7-.38-2.27-.81-.57-1.6-1.14-2.37-1.69-1.8-2-3.54-4.02-5.32-6-.33 3.39 2.64 5.6 4.42 8.1-.39 1.34-.84 2.68-1.33 4-3.34-.09-5.01 2.97-7.2 4.93.78 1.43 1.63 2.79 2.44 4.23-1.24 2.89-3.36 6.36-7.05 5.11-.51-1.5-1.02-3-1.43-4.5 1.66-2.12 4.28-4 4.13-6.98.18-2.67.37-6.33 3.98-6.31-1.54-.56-3.18.91-4.54-.32-.87 2.35-2.69 4.01-5.24 4.3-.18-1.28-.3-2.54-.4-3.79 1.57-.92 3.11-1.99 2.5-4.03-3.41-2.88-7.89-1.76-11.81-3.17-.55.21-1.65.63-2.19.84-.95 1.25-1.89 2.49-2.79 3.76-1.65.13-3.29.21-4.9.34-5.79 1.54-11.18 4.16-16.79 6.19 1.85 1.11 3.61 2.48 3.55 4.9-1.48-.12-2.94-.28-4.37-.48.03 1.98-1.09 3.6-2.19 5.14-.81.01-1.6.04-2.38.07-.66-2.78-2.97-4.2-5.2-5.62-2.21 1.29-4.46 2.51-6.48 4.07.34 1.29.77 2.57 1.29 3.83-2.36 1.34-5.52.02-7.44 2.35-1.95 1.04-1.68 3.37-2 5.23-5.15-.43-10.46.62-14.08 4.57-.8 1.93-1.79 3.78-2.77 5.63-1.48.06-2.97.12-4.41.17-3.75 2.56-7.48 5.16-11.4 7.45 1.74.54 3.53 1.12 5.31 1.68-.1.99-.18 2.01-.25 3.03-2.41 1.49-4.95 2.74-7.57 3.8l-.68 2.09c-2.18-.46-4.31-.97-6.44-1.51-1.12-1.79-1.44-3.89-1.66-5.93-1.84.12-3.67.31-5.49.4-.62-1.44-1.24-2.91-1.8-4.35-.7.14-2.11.41-2.82.54-.04 2.22 3.29 3.57 2.08 5.83-1.75 1.46-3.66 2.99-6.07 2.87-.56-1.37-1.12-2.73-1.67-4.08l2.36-1.72c-.43-1.46-.77-2.94-1.37-4.31-5.56-4.14-12.1-6.68-18.5-9.19-1.7.72-3.26 1.7-4.9 2.51l-1.47-1.91c.79-1.16 1.6-2.32 2.42-3.46-1.82-1.04-3.91-.63-5.88-.8-1.02-.97-2.08-1.86-3.18-2.69-.08.9-.25 2.71-.34 3.61-1.62-.16-3.2-.23-4.8-.24.03.58.07 1.75.1 2.33 2.19-.37 4.16-1.41 6.19-2.27.81 2.27 2.54 4.3 2.61 6.79-1.64 1.5-3.64 2.52-5.58 3.57-.55 1.36-1.13 2.7-1.71 4.05-1.95-.13-3.84-1.11-4.67-2.92-.62-3.02-1.73-6.05-1.22-9.16-1.11-.74-2.2-1.5-3.24-2.27.19.31.57.94.76 1.25-1.03.05-2.05.11-3.05.19.91.13 2.71.4 3.62.53-.08 1.88-.33 3.76-.61 5.63.16 2.56.73 5.16-.32 7.63-3.6 1.21-7.37-1.21-8.8-4.51-.92 1.9-2.06 3.72-2.63 5.78.95 2.33 2.44 4.46 2.44 7.1-.43.46-1.29 1.39-1.72 1.86-1.81.42-3.8 1.08-4.26 3.12-2.6 8.11-8.76 15.23-8.13 24.14-6.18 6.87-12.31 13.85-19.44 19.76-3.02 2.64-5.33 5.96-8.28 8.68-6.2 5.87-13.24 10.81-19.18 16.98-4.83 4.16-8.94 9.08-13.86 13.14-2.03 1.71-3.41 4.01-5 6.1-1.52 4.6-3.65 9.18-3.31 14.15.3 6.68-.99 13.28-.22 19.95.31 14.76 1.55 29.5 3.7 44.1 3.54 10.92 2.82 22.59 5.18 33.72.47 8.56 2.96 16.82 4.03 25.3.72 4.07 2.48 8.34 5.55 11.19 4.27 1.53 8.25 3.72 12.2 5.95 4.62 2.84 10.26.25 15.23 1.67 4.83 1.62 9.97.33 14.91 1.09 9.01 1.22 18.09.78 27.04-.66 7.36 1.27 14.95 1.91 21.99 4.69 1.52 1.01 3.68-1.41 4.89.42l1.19-.18c.86-.25 2.58-.77 3.44-1.02l-.17 1.18c11.07.13 22.16-.03 33.24.23l-.23.76c4.41.06 8.82.26 13.24.23l-.34.86c4.09-.02 8.19.13 12.29.09l-.23.83c3.74-.02 7.49.17 11.25.18l-.27 1c1.78-.05 3.6-.04 5.41-.07l-.56 1.08c2.15-.05 4.34-.02 6.52-.06l-.59 1.43 1.45-.73c-.03 1.47-.04 2.94-.01 4.43l-3.22-.4.47 1.25c-2.43.02-4.85.12-7.26.16l.17 1.08c-.84-.11-2.52-.32-3.36-.43l.41 1.14c-4.96-.41-9.85.29-14.73.95-39.99 0-79.98-.22-119.97-.18-3.65.02-7.32.22-10.85-.79-38.92-.01-77.83-.23-116.75-.1l.28-.86c-37.43.17-74.85-.22-112.28-.14l.26-.81c-15.45-.01-30.9-.35-46.35-.12l.43-.99c-5.55.16-11.09.06-16.63.04l-.06-.52c1.3-.18 2.63-.33 3.96-.52-5.27.45-10.54.08-15.81.09l.42-1.39c-.55.17-1.65.52-2.19.69l.03-3.45 3.21.32-.45-1.01c3.93-.84 7.83-1.79 11.8-2.48 1.79-.67 3.7-.77 5.6-.86l-.29-.9c1.39.01 2.8.03 4.22.06l-.22-.91c6.74-.09 13.48-.33 20.22-.21l-.18-.8c10.05.11 20.1-.19 30.15-.19l-.12-.78c11.59.04 23.19 0 34.78-.17 10.16-1.85 20.62-.46 30.9-1.27 4.23-2.56 9.34-1.97 13.86-3.72 5.63-1.47 9.66-6.08 15.11-7.95 3.45-1.55 6.67-3.58 9.87-5.58 3.58-1.9 6.84-4.38 9.77-7.18 3.95-3.78 5.8-9.05 8.28-13.79.54-1.29 1.4-2.53 1.44-3.95-.35-12.4-2.26-24.72-1.63-37.14 1.29-13.25 1.85-26.55 1.8-39.86-.33-10.64.49-21.47-2.65-31.8-.85-8.05.52-16.34-1.52-24.29-.72-4.47-3.1-8.52-3.15-13.11-4.21-9.73-12.01-17.17-19.31-24.61-3.2-3.23-5.96-7.19-10.29-8.97-7.3-3.63-14.37-8.12-22.45-9.75-5.99-2.44-11.5-5.91-17.33-8.69-4.95-1.64-9.81-3.62-14.89-4.78-3.66-3.06-6.29-7.13-8.26-11.43-.81-1.68-.97-3.77-2.56-4.95-1.1-.25-2.23-.26-3.32-.32-.11.62-.34 1.86-.45 2.48a25.382 25.382 0 0 0-3.51 4.91c-2.05-.09-4.09-.28-6.12-.38-.46 1.28-.39 2.94-1.56 3.89-1.31.21-2.63.23-3.92.34.07-.49.22-1.47.29-1.97-1.5.04-2.98.11-4.45.11-.38-2.38-2.11-3.87-3.82-5.32.08-1.42.15-2.82.21-4.21-1.04-.33-2.14-.5-3.2-.67.18 1.48.84 2.78 2.17 3.59 1.14 2.16 2.02 4.9.57 7.14-1.81 2.69.23 5.82-.43 8.72-.17 2.17-2.81 2.41-4.31 3.38-.94-.04-1.87-.06-2.8-.07-.13-1.44-.23-2.89-.29-4.31-.69-1.41-1.31-2.86-1.91-4.29-1.65-.6-3.28-1.21-4.92-1.76-.05.6-.14 1.79-.18 2.39 1.85 1.21 3.8 2.63 3.64 5.14-3.03.05-5.03-3.34-8.18-1.89 1.52 1.19 3.48 1.46 5.27 2.09.18 2.23 1.14 4.27 1.98 6.32-.18.55-.56 1.66-.75 2.21-1.08.41-2.16.84-3.22 1.28-.53-.35-1.57-1.04-2.09-1.39-.56-.92-1.1-1.83-1.63-2.72-1.48.34-2.94.73-4.4 1.1-.35-2.68-2.41-4.28-4.29-5.92-1.56-1.38-.24-3.25.48-4.64.18-.38.54-1.15.72-1.54-.41.07-1.22.21-1.63.27-1.33 1.99-4.31 3.22-5.6.48.14-3.34 2.52-6.24 2.24-9.69-.94.11-1.87.24-2.79.39-.57 1.26-1.14 2.53-1.73 3.79-1.39-.08-2.79-.15-4.17-.2.09 1.79.23 3.58.37 5.39-1.28-.04-2.54-.08-3.79-.11-.56-1.2-1.12-2.4-1.66-3.58-.88 1.21-1.76 2.42-2.59 3.67 1.54 2.58 2.29 5.49 2.94 8.4-.22-.35-.64-1.03-.85-1.37-2.01-.21-2.78-2.23-3.98-3.51-.42-1.13-.85-2.24-1.27-3.34-2.22-2.12-1.45-5.1-.98-7.75-2.86.44-5.66 1.25-8.57 1.23-1.23 2.1-2.62 4.11-3.83 6.23-2.85-.48-5.69-.97-8.56-1.27-.06.61-.2 1.82-.26 2.43.82-.13 2.45-.38 3.27-.51.12 1.84.16 3.69.12 5.55-1.86-.52-3.69-1.21-5.53-1.77-1.03.98-2.03 2-2.96 3.08-1.07 1.26-2.19 2.48-3.14 3.84 1.01-.84 1.94-1.79 2.95-2.65 3.35-.43 7.37 3.51 5.08 6.78-.3 1.29-.58 2.59-.84 3.9-2.11-1.2-4.12-2.61-6.43-3.4-.15 2.25-.13 4.52-.18 6.79.87.29 1.75.6 2.64.93-1.72.01-3.44-.03-5.14-.07-.72 2.09-2.9 4.25-4.89 2.03 1.03-1.38 2.07-2.79 3.58-3.69-.56-.94-1.12-1.86-1.67-2.77-.18-.75-.52-2.24-.69-2.98-.76.76-1.51 1.53-2.24 2.34-.59.24-1.77.71-2.36.95-.21 1.92-.4 3.85-.33 5.8 1.3.73 2.77 1.11 4.2 1.59l1.24 2.8c-1.11.41-2.21.83-3.31 1.26l-1.2 1.44c-1.39.18-2.77.43-4.12.74 1.32.88 2.81 1.46 4.34 1.96-.8 3.65 4.6 4.09 3.92 7.6-1.92.47-3.88.14-5.8.04-.15-.31-.45-.92-.6-1.23-.24 1.8-.52 3.6-.85 5.41-1.15-.91-2.24-1.82-3.33-2.77-2.64.82-5.39.85-7.99-.1-.44-1.87-1.02-3.7-1.57-5.51-1.49.45-2.97.94-4.46 1.35-1.35-1.26-1.1-3.13-1.25-4.78.37-.67.75-1.33 1.14-1.99-.68-.01-2.05-.04-2.73-.05 1.06-4.22 6.6-3.75 10.02-4.64.27-.78.54-1.55.79-2.32-1.56-.09-3.1-.16-4.64-.26-.93-1.96-1.93-3.88-2.76-5.88 1.28-1 2.64-1.9 4.02-2.76.2-1.32.34-2.65.47-3.96-1.64-.14-3.24-.32-4.84-.63-1.03.42-2.04.85-3.05 1.29-.36-.33-1.08-.99-1.43-1.32.05-1.1.12-2.18.19-3.25-1.1-.51-2.15-1.06-3.16-1.66-.19-1.57-.04-3.17.05-4.71-1.01-.99-2.05-1.93-3.12-2.82.24 1.8.56 3.61.95 5.41-1.05.51-2.08 1.04-3.11 1.58 1.2 2.85 1.88 5.88 2.19 8.97-1.76 0-3.52-.09-5.26-.17.09.46.25 1.39.34 1.86-1.62 0-3.23.01-4.83.03-.55-1.14-1.09-2.26-1.63-3.37-1.21-.58-2.44-1.11-3.46-1.97-.36-1.81.08-3.59.49-5.32-.36-.82-.71-1.63-1.03-2.43-.44 1.88-1.62 2.78-3.56 2.69l-.14-1.64-2.87.28c1.69 1.3 3.65 1.9 5.82 1.79-2.39 2.69-4.31 5.75-4.12 9.49-1.35-.25-2.66-.59-3.86-1.21.82-1.66 1.28-3.43 1.39-5.26-.4.11-1.21.34-1.61.45-1.16.78-2.25 2.15-3.82 1.63-1.22-1.61-1.77-3.57-2.33-5.46-1.91.76-3.81 1.63-5.19 3.2-.85.06-1.68.14-2.51.23-.72-2.2-.6-4.52-.99-6.75-1.19-1.54-3.22-1.44-4.93-1.76 0 1.52 0 3.04-.01 4.57-1.36-.78-2.7-1.55-4.04-2.33.89 2.16 2.21 4.17 2.63 6.52-2.25-.05-4.42-.54-6.51-1.29-.01-1.62.01-3.2.02-4.78-.66-.12-2-.34-2.66-.46-.93-1.21-1.88-2.38-2.81-3.56-1.02.05-2.02.13-3.01.21l.22.63.95-.29c.72 1.12 1.48 2.25 2.26 3.36-.03.53-.08 1.58-.1 2.1-1.26-.02-2.51-.05-3.75-.1.02-1.47.07-2.95.11-4.4-3.05-1.15.2-5.17-2.36-6.54-8.12-2.02-16.32-3.58-24.38-5.84-1.81-.73-3.65.06-5.39.52-4.09-2.12-7.5-5.31-11.59-7.41-6.8-2.68-13.84-4.66-20.88-6.55-3.89-.43-7.83-2.45-11.71-1.09-5.32-3.4-10.11-8.25-16.44-9.61-1.34.85-2.64 1.77-4.05 2.51-.36-1.33-.81-2.62-1.35-3.87-1.87-1.24-4.3-.87-6.43-1.05.51 1.56 1.18 3.09 1.6 4.7-2 1.75-5 2.5-7.02.4-.88.6-1.75 1.21-2.61 1.84-1.43.02-2.86.04-4.28.1-.35.7-1.04 2.09-1.39 2.79 1.63 1.82 3.45 3.55 4.15 6-2 2.33-4.41 4.27-7.2 5.58.11 1.27.21 2.55.31 3.84-.84-.01-2.51-.05-3.35-.07 0 1.82-.08 3.71-1.05 5.34-1.35-.77-2.91-1.27-3.86-2.55.01-1.85.96-3.47 1.47-5.19.57-1.2 1.19-2.37 1.82-3.52-.86.8-1.7 1.64-2.56 2.46-1.33 1.39-2.59 2.85-3.83 4.33-.88 0-1.75.01-2.61.04-.36-.65-1.09-1.95-1.46-2.6 1.63-2.42 5.91-3.38 4.26-6.98l-2.25.04c0 1.6.05 3.18.05 4.81-.75-.04-2.24-.11-2.99-.14-.13-1.35-.2-2.69-.23-4.02-.3.05-.9.17-1.2.23-.67.73-1.34 1.47-2 2.22-.17 1.25-.35 2.51-.54 3.78-5.04-.33-7.51-5.58-10.89-8.68-.01 1.36.01 2.73.05 4.11-1.06 1.49-2.12 2.98-3.17 4.49-.9-.11-1.8-.22-2.69-.31-1.59-3.02-1.6-6.36.07-9.33-2.4 1.08-4.89 2.22-7.59 1.62.02-1.41-.32-3.33 1.51-3.67 3.43-.71 6.54-2.23 9.6-3.9.58-2.37.74-4.78-.51-6.97-1.53-2.9-1.01-6.18-1.25-9.31-3.13-.28-1.74 3.12-2.33 4.87-3.82 1.37-5.59-2.67-8.16-4.54-3.23-.26-5.03 2.84-7.02 4.84-2.38 2.36-3.53 5.78-6.33 7.73-2.81 1.9-4.7 4.92-7.84 6.39-2.43 1.05-3.31 3.81-5.47 5.19-2.69 1.04-5.6.06-8.39.29-4.36.22-8.77.79-12.94 2.13.32 1.46.75 2.9 1.28 4.32-.61 1.19-1.19 2.4-1.77 3.61-4.26.87-8.68 1.17-12.75 2.82-.98 1.47-2.14 2.92-3.88 3.52-1.7 1.12-3.26-.79-4.68-1.46-1.98 1.45-4.4 1.14-6.66.8-.23-1.43-.45-2.86-.65-4.27-.13.78-.24 1.58-.35 2.38-1.37 1.54-3.1 2.63-5.23 2.5-.67-3.55 3.54-7.62-.36-10.3-.38-2.82 3.65-3.65 2.77-6.41-2.59-1.68-5.67-.4-8.49-.48-.77-3.54 2.71-5.29 4.43-7.78-1.7-.16-3.4-.13-5.07-.44-.64-1.16-1.13-2.37-1.47-3.64 1.31-.75 2.62-1.51 3.93-2.27 2.12 1.67 4.12 3.48 6.13 5.29.66-2.35 1.38-4.68 1.89-7.06.82-.56 1.65-1.11 2.48-1.64-.11-1.5-.18-2.98-.22-4.46.52.01 1.57.02 2.09.02.09 2.94-.45 6.93 3.5 7.42-.03 1.31-1.69 2.89-.83 4.07 2.29.93 4.76.29 7.08-.17 1.11-2.34-1.54-3.11-2.88-4.36-1.54-1.11-1.75-3.14-2.28-4.8 1.09-.78 3.51-.83 2.76-2.74-1.96-2.15-4.85-1.65-7.42-1.47.25-3.67 3.61-5.9 6.39-7.73-.65-.48-1.29-.96-1.93-1.41-2.36 1.33-4.11 3.4-4.77 6.07-1.88-.48-3.35-1.58-4.24-3.31-.94.56-1.86 1.13-2.78 1.71.45 1.11.93 2.22 1.44 3.32-3.59 1.94-5.79 6.82-10.37 6.41-1.64-2.8-3.78-5.4-6.85-6.67.38-1.66.8-3.34 1.17-4.98-2.9 3.05-6.78 4.65-10.97 4.81-.9-.77-1.83-1.5-2.77-2.19l-.22 1.88c-2.86-.45-5.76-.31-8.61.08-.4 1.59-.92 3.15-1.35 4.75.36 1.6 1.41 3.11 1.03 4.83-2.7 1.8-6.16 1.58-9.01 3.08.17.36.5 1.07.66 1.43 1.23 1.25 3.61 2.18 3.3 4.3-1.19 1.51-2.58 2.86-3.75 4.4-2.21-.17-4.37-.7-6.53-1.14-.02-1.49.03-2.96.15-4.42-.52-.47-1.04-.93-1.56-1.37l-.34 1.25c-1.37-.2-2.72-.41-4.08-.6-.28-1.7.2-3.3 1.06-4.74 2.13-.04 4.26-.05 6.4.07-.4.98-1.2 2.92-1.6 3.9 1.54-.37 5.08.86 5.06-1.48-.52-2.27-2.68-3.55-4.05-5.28-1.64.95-3.29 1.88-5.02 2.66.2-1.68.52-3.35.58-5.03-2.58-1.38-5.35-5.42-8.15-2.15.63.47 1.88 1.4 2.5 1.87.08.31.24.95.31 1.26-.5.06-1.52.19-2.03.25.06-.57.17-1.71.23-2.28-1.82.13-3.63.27-5.44.31.44-1.62 1.01-3.21 1.48-4.81-1.08-.67-2.17-1.3-3.29-1.88-.08-3.35 1-6.53 1.89-9.7.06-2.09.03-4.17.05-6.24 1.46-.22 2.92-.45 4.38-.69-1.27-2.1-2.9-4.04-3.36-6.5l-1.84-.56c-.98-2.99.11-5.73 1.64-8.28-1.57-.54-3.13-1.07-4.69-1.58-.49-1.86-.81-3.76-.91-5.67-.62-.07-1.85-.22-2.47-.3.15-1.18.34-2.34.57-3.49-1.22-.47-2.44-.95-3.65-1.43.95-2.23 2.77-3.67 5.05-4.43-2.22-2.89-5.49-4.46-8.62-6.13-.05.91-.17 2.74-.23 3.66-1.84-.08-3.69-.14-5.53-.18-1.26-3.57 1.18-6.65 2.06-9.97-.7.09-2.11.25-2.81.33-.6 2.32-1.71 4.42-3.64 5.92-1.26-.04-2.52-.08-3.78-.14v-3.44c1.68-1.2 3.23-2.58 4.33-4.34-1.3-.13-2.59-.22-3.89-.27-.97 1.62-1.97 3.23-3.02 4.8.22 1.18.42 2.38.59 3.58-2.04 1.36-3.86 3.19-6.29 3.87-1.15-.65-2.33-1.15-3.52-1.66-.05.53-.14 1.59-.19 2.12.56.13 1.67.4 2.23.54.63.74 1.19 2.72 2.59 1.88l.8-.23c.31 1.23.52 2.46.73 3.73-.61-.13-1.84-.4-2.46-.53l-.32-.54c-.42-.41-1.24-1.23-1.65-1.63l.32 1.64c-3.07.69-7.36 1.34-6.61 5.65l2.74-.12c-.14-2.57 1.84-2.17 3.58-1.91.13.91.27 1.83.4 2.76-.95.04-2.87.13-3.83.17.44.64 1.31 1.91 1.74 2.55-.13.59-.39 1.79-.51 2.38-1.27-.39-2.54-.77-3.81-1.13-.42-1.79-.83-3.58-1.27-5.35-1.2.39-2.36.89-3.47 1.5.94-.99 1.86-2 2.75-3.02-.79.05-2.36.17-3.15.22.09-.55.26-1.66.34-2.22l-1.83-.04c-1.6 2.41-3.93 4.35-7.01 4.01-.14-.84-.42-2.5-.55-3.34 1.65-.95 2.69-2.36 2.28-4.35-1.3.93-2.01 2.33-2.37 3.87-.36-.03-1.09-.1-1.45-.13-.35.42-1.05 1.25-1.4 1.66-3.16.51-5.67 2.41-7.05 5.3-.88.39-1.75.79-2.61 1.21-.26-.69-.76-2.06-1.01-2.75.28-.78.56-1.55.84-2.3-.43.06-1.29.19-1.73.25-.59 1.65-1.17 3.31-1.73 4.99-3.01-1.27-3.8-4.39-4.66-7.2.37-.28 1.13-.83 1.5-1.11l-3.79-.24c.63-1.48 1.3-2.92 2.1-4.3-.41-1.07-.76-2.14-1.11-3.2 1.38-.4 2.76-.8 4.14-1.19-1.8-5.65 5.17-6.64 7.07-10.55-2-.05-3.9.45-5.49 1.68-.63-.07-1.9-.19-2.54-.25-1.01-1.33-2.21-2.7-1.52-4.48 1.26-.62 2.59-1.08 3.9-1.58-.87-1.33-2.71-2.47-2.21-4.29 1.72-2.17 3.54-4.3 4.29-7.04-1.87-.04-3.61.41-4.98 1.74.29-.63.89-1.88 1.19-2.5-.92-.03-2.75-.09-3.67-.11.17.8.49 2.4.66 3.2-.69-.01-2.07-.04-2.76-.06.77-1.39 1.55-2.83 2.35-4.18-2.27.16-4.54.62-6.82.25 1.42-1.51 3.27-2.42 5.04-3.41-3.71-2.22-8.02-2.22-12.19-2.61 0 .74-.02 2.21-.03 2.95-1.12.12-2.25.26-3.37.42.21-.86.61-2.57.81-3.42l-1.23.01c-.04-.48-.11-1.43-.15-1.91l1.07.29c.4-1.24.78-2.49 1.13-3.73-1.86-.26-3.68-.67-5.34-1.58-.08-.94-.15-1.88-.23-2.8 2.05-.29 4.1-.61 6.13-1 1.28.69 2.48 1.54 3.81 2.16 2.27-.19 4.55-.3 6.83-.17.58-2.65.64-5.35.54-8.03.22.02.64.07.85.09.26-2.92 2.67-4.44 5.43-4.63-.31-1.44-.87-2.81-1.5-4.13.77-1.26 1.54-2.51 2.34-3.74l-1.39.33c.05-1.62.14-3.24.27-4.84 1.32-.08 2.65-.15 3.99-.21-.02-.55-.06-1.66-.07-2.21-1.66-1.71-2.04-4.89 1.07-5.17.2-1.86.18-3.85 1.18-5.5 1.4-1.72 3.23-2.99 4.91-4.39.23-2.33.23-4.73-2.54-5.33-.91-.11-2.72-.32-3.63-.42 1.19-3.02 4.09-4.69 6.02-7.16.03-.64.1-1.93.13-2.57 1.45-2.15 3.08-4.17 4.39-6.41 2.75-.32 4.26 1.75 4.94 4.14 1.76 1.25 3.62 2.42 5.8 2.79-.03-.6-.08-1.81-.11-2.41-.98-.59-1.96-1.17-2.94-1.75-.13-1.33-.24-2.65-.31-3.97 2.57-.55 4.66 3.06 6.77.51.96-.17 1.92-.33 2.89-.47.69-.85 1.4-1.66 2.14-2.46 2.61 1.62 4.04 4.61 5.54 7.21 1.31-.59 2.62-1.17 3.94-1.73.02-1.29.02-2.57.03-3.84 1.08.32 2.17.63 3.26.97.37-.43 1.11-1.28 1.48-1.71.81-.1 2.45-.28 3.27-.38-1.47-1.65-2.75-3.5-2.25-5.82 1.65 0 3.31.05 4.96.12 1.6 1.54 2.37 3.54 2.46 5.76.72.05 1.45.11 2.18.19 1.84-4.12 7.42-1.98 10.88-1.38 1 .2 3 .59 4 .79-.16-.73-.47-2.19-.63-2.92 2.83-1.05 3.53-5.66 7.19-4.5 1.8 1.57.78 4.12.85 6.19.52.04 1.56.11 2.08.15.39-1.38.8-2.74 1.21-4.1.92.01 2.76.02 3.68.03l.21 3.72c1.09.02 2.18.09 3.27.22.26 1.27.5 2.56.71 3.87 1.17 0 2.34.01 3.52.03-.18-1.53-.37-3.06-.54-4.58 2.38-.73 4.4 1.11 6.52 1.87.59-1.03 1.2-2.05 1.81-3.06 2.26-.06 4.43-.63 6.55-1.37 1.89.25 3.78 1.82 5.66.63 1.16-1.41 2.04-3.03 3.04-4.56-.98.05-2.94.14-3.91.18 1.08-2.34 1.52-4.61.09-6.87.83-2.41 2.5-4.48 2.78-7.1-1.51-.32-3.46.12-4.3-1.52-.34-1.67.51-3.24.97-4.77-1.64-.43-3.28-.83-4.92-1.21l-.08-3.31c.88-.56 1.77-1.11 2.67-1.65.37-1.1.75-2.19 1.15-3.26-2.51-3.25-2.42-7.16-1.92-11.02-.55-.57-1.64-1.71-2.19-2.28-.12-2.8 2.44-4.46 3.95-6.46.06-1.46.15-2.9.26-4.34 1.52.6 3.05 1.21 4.58 1.83-.16-2.65-1.23-4.86-2.95-6.79.39-2.67 1.61-5.19 1.75-7.94-1.49-.94-2.95-1.94-4.38-2.96-1.46.71-2.9 1.46-4.33 2.23-.49.07-1.48.22-1.98.3.73-2.74-.12-5.39-.93-7.99 1.82-.07 3.66-.08 5.49-.07 1.07-1.5 2-3.1 1.76-5.01.63.36 1.89 1.09 2.52 1.45.1-1.48.21-2.95.32-4.41 1.51-.12 3.02-.21 4.55-.21a99.48 99.48 0 0 0 3.23 3.95c.44-1.24.88-2.47 1.32-3.69 2.08-1.8 3.65.29 5.42 1.08 1.58-.75 2.93-1.98 4.75-2.24-2.59.12-5.17.13-7.74-.03l.66-1.28c-2-1.06-3.94-2.26-6.09-2.96-2.82-1.19-5.91-.24-8.85-.66-.11-1.3-.2-2.6-.27-3.89 1.5-.11 3-.2 4.51-.26-.16-.34-.48-1.02-.64-1.35-1.44-1.4-4.32-2.67-2.56-4.99 1.81-.43 3.67-.58 5.52-.82.42 1.2.85 2.41 1.28 3.62 1.46-.11 2.91-.23 4.38-.31.81 1.17 1.63 2.35 2.49 3.5.04.68.11 2.03.15 2.7.58-.05 1.75-.14 2.33-.18-.35-1.42-.9-2.78-2.28-3.47.78-2.37.75-4.85.76-7.3 1.5-.42 3-.83 4.52-1.18 1.06 1.45 1.78 3.31 3.36 4.31 1.57.71 1.88-1.69 2.69-2.49 2.28-.17 3.96 1.26 5.55 2.69 1.26.28 2.49.65 3.71 1.1.44.01 1.3.04 1.74.05-.71-.7-1.42-1.4-2.12-2.07-1.5-1.68-3.1-3.27-4.52-5 .82-.35 2.46-1.04 3.28-1.38-1.09-1.33-2.37-2.48-3.39-3.85-.16-1.65 1.84-2.38 2.68-3.55 1.36-.01 2.73.03 4.1.14.19 1.88.95 3.48 2.27 4.79.22-2.2.66-4.31 1.65-6.29 1.89 1.4 3.51 3.11 5.17 4.78 1.3-.98 2.58-1.99 3.76-3.11 2-1.04 3.87-2.48 6.2-2.69.76 1.2 1.55 2.41 2.36 3.6.07.71.19 2.15.25 2.86.9-.05 2.69-.15 3.58-.21.53-1.17 1.07-2.33 1.59-3.5.61-.19 1.81-.58 2.41-.78-1.13-2.47-3.28-4.61-2.86-7.55 4.57-.11 5.56 5.2 9.23 6.84-.14-1.62-.3-3.24-.48-4.85 2.21-.58 4.44-.06 6.39 1.08-.92 2.72-1.91 5.5-1.81 8.43.21-.33.64-.98.85-1.3 2.24-.15 4.48-.27 6.73-.28.8.92 1.57 1.89 2.3 2.9-.39 1.17-1.14 2.26-1.23 3.54 1.19-.07 1.63-1.33 2.51-1.91 1.32-1.55 4.42.73 5.29-1.38l.28-2.7c1.87.43 3.75.83 5.61 1.34 1.45-.65 2.93-1.23 4.44-1.76l.15 2.3c.91-.2 1.82-.42 2.72-.66-.09-.88-.3-1.75-.47-2.6-.83.11-2.48.33-3.3.43-.11-1.76-1.13-3.19-2.31-4.41.44-1.58 1.14-3.08 1.4-4.7-1.65.03-4.12-1.08-4.98.91-.09 2.03-.05 4.08-.24 6.12l-3-1.32c.44-1.27.89-2.51 1.31-3.77l-2.83-.44c-1.95-.82-3.97-1.44-5.94-2.17 1.42-1.99 3.77-1.94 5.96-1.98-.83-2.61-1.49-5.93 2.35-6.48.36 1.02.78 2.05 1.15 3.09.86-.14 2.59-.43 3.46-.57-1.55-1.38-5.8-2.21-3.89-4.97.37-.3 1.1-.9 1.46-1.2-.1-.48-.32-1.46-.43-1.94-.14.39-.41 1.17-.54 1.56l-.65.08c-2.6 2.52-5.2 5.23-8.89 6.06-.53.99-1.09 1.96-1.69 2.92-2.18.09-3.78-1.69-5.5-2.77-.05-.94-.16-2.82-.21-3.76-1.69 1.75-3.51 3.37-5.6 4.65-.8-.82-1.59-1.64-2.38-2.46.36-.84 1.07-2.52 1.42-3.36-.94-.06-2.82-.17-3.75-.23.04-.96.1-1.91.17-2.86.69-.51 2.06-1.52 2.74-2.03-2.88-2.13-6.83-.55-7.91 2.72-.56-.1-1.67-.31-2.23-.42.27-.17.81-.5 1.08-.66.36-2.63 4.77-1.73 3.71-4.99l-.74-.56c-4.02-1.36-8.13 1.11-12.2.19.65-.21 1.95-.62 2.6-.83l.13-1.62c-1.49-.37-2.98-.75-4.45-1.15.23-.97.47-1.94.71-2.9 1.54-.32 3.07-.63 4.63-.91.38-1.18.78-2.36 1.19-3.53 1.97.61 3.96 1.29 5.61 2.57 1.46 1.68 1.08 4.07 1.91 6.04 2.18 1.39.74-2.32 1.28-3.43.54-1.73 1.9-3.06 2.9-4.53-.07-1.06-.14-2.11-.19-3.15.66-.06 1.99-.16 2.66-.22 1.17-1.41 2.4-2.76 3.76-3.98.77.36 2.3 1.09 3.07 1.46.03.59.06 1.19.1 1.8.83-2.07 2.77-3.24 4.36-4.65 1.1.11 2.2.23 3.31.35.08-.57.25-1.7.33-2.26-2.53.4-5.17.84-7.57-.34.04-1.67 1.15-3.09 1.15-4.75-1.18-2.96-2.37-5.91-3.79-8.76-1.11.49-2.14 1.06-3.25 1.52-1.19-.92-2.37-1.79-3.58-2.65-.56-1.04-1.11-2.07-1.66-3.09-.82.35-2.47 1.07-3.29 1.43.75-.8 1.49-1.61 2.25-2.39-.82-.95-1.64-1.9-2.46-2.84-.01-.44-.05-1.33-.07-1.77.43-.41 1.28-1.23 1.71-1.64.16-1.67.31-3.32.48-4.97 2.05-.24 3.59-1.55 5.23-2.65 2.03 1.15 3.92 2.51 5.99 3.59-.65 2.12-1.4 4.22-2.3 6.26.29.38.87 1.14 1.15 1.53l1.4-.36c.16-1.08.32-2.16.49-3.23 2.03-2.36.62-5.44-.41-7.92-1.14-.63-2.49-.97-3.31-2.05.44-1.55 1.11-3.02 1.7-4.52.96-.6 1.94-1.18 2.94-1.72l.08-1.44c-.38.14-1.15.4-1.53.54-1.85 2.04-4.55 3.23-7.17 1.88-.55.18-1.65.55-2.2.74-.42.45-1.27 1.35-1.69 1.8.08-1.36.63-2.47 1.64-3.35-.08-2.76-2.59-3.18-4.71-3.83.94-2.08 2.21-3.97 3.64-5.73 1.02.59 2.05 1.18 3.08 1.79l1.51.28c.4-1.44.86-2.85 1.32-4.26-.22.37-.67 1.1-.89 1.47-4.11-.3-7.58-2.52-11.29-4.05-1.16-.2-.82-1.57-1.17-2.35 1.53-.78 2.93-1.78 4.29-2.83 2.59.82 4.18 3.14 5.4 5.43.92-2.25 2.37-4.2 3.88-6.08-2.75-1.52-5.73-2.53-8.63-3.67-.2-.47-.59-1.42-.79-1.9l-.68.17c-.01-.47-.02-1.4-.02-1.87l1.11.23c-.06-1.48-.12-2.96-.16-4.44 2.86.1 5.77.18 8.45 1.33.94-.72 1.89-1.43 2.84-2.13.44 2.13 1.56 3.53 4.01 2.83-1.39-2.08-2.83-4.14-3.68-6.51-1.51-.8-3.39-1.25-4.07-3-1.25-2.39-3.27-4.07-5.94-4.62-.23-1.97 0-4.83 2.6-4.78 2.84 1.24 6.16 1.95 8.17 4.52-.95.69-1.89 1.39-2.85 2.06 2.22-.51 4.68-.5 6.62-1.86-.75-2.55-4.69-2.46-4.7-5.24.72-2.04 1.97-3.83 2.84-5.8 1.85.11 3.12 1.39 4.41 2.57 1.82-1.74 3.44-3.86 6.02-4.49.43.4 1.31 1.21 1.75 1.62 1.21-.11 2.46-.82 3.67-.38 1.31.87 2.47 2.12 4.2 2.04.18-1.79-.57-3.28-1.85-4.45.79-.71 1.48-1.52 2.2-2.3l.12-3.09c2.52.95 4.7 2.57 7.02 3.92.06-.8.2-2.4.27-3.2.65-.78 1.32-1.56 1.99-2.32-.06-1.89-.15-3.77-.2-5.65.52-.06 1.56-.18 2.07-.23l.32 2.53c.51-.06 1.53-.19 2.04-.26.96-2.35 2.81-4.14 4.41-6.05 1.21.97 2.38 2.01 3.53 3.08.33-.03 1-.08 1.33-.11.38-1.54.81-3.06 1.29-4.57 1.34-.42 2.67-.84 4.01-1.28 1.36 1.14 2.47 2.51 3.47 3.98 2.32.08 4.62.12 6.96.18-1.73-1.57-3.39-3.2-5.08-4.8.62-1.08 1.26-2.15 1.91-3.22-.8-1.86-1.64-3.71-2.32-5.61 1.95-.92 3.86-1.91 5.79-2.88.95-1.33 1.9-2.66 2.86-3.98 2.02.77 3.92 1.86 5.59 3.25l1.48.32c.68-1.74 1.24-3.68 3.04-4.58.85-1.21 1.69-2.42 2.6-3.58-1.78-3.33-4.69-5.92-8.45-6.67.06-1.15.15-2.29.26-3.42 1.6.32 3.22.64 4.84.96.35-2.19 1.93-4.73.16-6.71-.41-2.68.79-7.34 4.36-6.51 2.2-.38 2.04 2.26 2.73 3.64-1.58.46-2.21 1.63-2.02 3.16.21-.35.64-1.04.85-1.38 1.96-.18 3.86-.73 5.65-1.57 2.23-1.22 4.78-.32 7.17-.22.48-1.19.96-2.36 1.45-3.54.94.09 1.89.22 2.84.39 1.14 1.11.48 2.86.72 4.27-.23 2.47 1.48 4.6 1.48 7.03-.88 2.21-1.89 4.38-2.57 6.67l-1.8-.04c1.24 3.15 4.69 4.35 7.1 6.45 1.15-2.8-1.59-4.04-2.99-5.89.43-1.65 1.12-3.21 1.86-4.73.84-.03 2.54-.08 3.39-.1-.15-.35-.46-1.04-.62-1.39-1.36-1.2-2.2-2.72-2.08-4.56 2-.19 4.01-.27 6.02-.29.25 1.16.5 2.32.75 3.49.94.01 1.88.01 2.83.01-2.2-2.92-2.34-7.88 1.42-9.57 1.04-1.11 2.1-2.19 3.2-3.24-.82-1.65-1.49-3.37-2.04-5.12 1.77-.04 3.55-.04 5.34-.06.21-2.81-.06-5.85 1.67-8.26 1.12-1.65 1.44-3.59 1.57-5.53 2.19-.74 4.34-1.6 6.44-2.57-.85-.81-1.69-1.61-2.52-2.41 2.85-1.29 5.2-3.95 8.58-3.59.03 1.33.05 2.66.08 4 .51.34 1.53 1.04 2.03 1.39.43 1.12.87 2.25 1.31 3.39 1.83-3.82 6.22-7.87 10.68-6.46.74 2.13-1.39 5.67 1.86 6.3.11-1.82.46-3.61 1.3-5.24 1.13-.09 3.38-.28 4.51-.37-1.37-1.42-3.18-2.1-4.88-2.94.38-2.41.54-4.89-.68-7.11 1.67-1.27 3.54-2.23 5.49-3l1.39 1.59-.09 1.01c.79-.09 2.36-.26 3.15-.35.02 2.82.19 5.63.33 8.45.34 1.79.87 3.69.39 5.5-1.15 2.15-2.68 4.08-3.5 6.4 2.14.13 3.72-1.37 5.47-2.29 1.05 1.12 1.95 2.35 2.9 3.56-.74.38-2.23 1.15-2.98 1.53.14.4.4 1.2.53 1.6.8.19 1.61.38 2.42.58.73-1.64 2.33-2.91 2.67-4.68-1.37-1.93-2.97-3.66-4.5-5.44 1.43-.39 2.86-.78 4.3-1.18.31-1.11.62-2.21.94-3.31.67-.04 2.02-.13 2.69-.18 1.63-.43 3.3-.64 4.99-.8-1.39 3.61-3.62 6.82-5.85 9.95 1.42.87 2.86 1.72 4.31 2.55-.33-.36-.99-1.09-1.32-1.45.44-1.41.92-2.81 1.41-4.2 1 .07 3.01.21 4.01.29-.08-1.25-.15-2.5-.23-3.74 1.79-.56 3.57-1.17 5.33-1.82 2.7 1.21 4.7-1.16 6.64-2.62 0-1.9.02-3.78.1-5.67 2.83-.9 6.53-2.1 8.5 1.03.35.02 1.04.04 1.38.05-1.74-2.83-2.3-6.11-.67-9.14-1.37-.05-2.73-.13-4.07-.26-.97-2.1 1.74-2.44 2.96-3.11-.09-1.34-.19-2.68-.25-4 1.14-.3 1.85-1.22 2.44-2.14l-3.2-.96.16-3.41c2.41-.09 4.95.03 7.06-1.36-1.1-.96-2.2-1.92-3.29-2.88-.01-.58-.02-1.75-.02-2.33 1.33-1.5 2.62-3.02 3.96-4.52 2.72.05 5.44.1 8.15-.2.1-3.33-1.79-6.06-3.54-8.69 2-1.57 4.44-1.23 6.77-.87 1.57.04 3.11.36 4.64.73l.01 1c.57-.08 1.72-.26 2.29-.34-.3-.11-.9-.34-1.2-.45-.28-1.83-.71-3.63-1.11-5.42 1.27-.01 2.55 0 3.84.01.05-.73.17-2.19.22-2.92 3.46.19 6.8 1.23 10.28 1.29-.82-3.44-4.09-7.35-1.67-10.76l.28-2.33 3.64.24c-.12-2.45-1.81-3.81-3.82-4.78-.43-2.66 1.78-4.21 3.51-5.79 1.02 1.15 2.08 2.29 3.14 3.42l1.44-1.36c.05-1.22.1-2.44.17-3.65.62-.02 1.85-.05 2.46-.06.73-1.05 1.29-2.44 2.76-2.58.97.85 1.8 1.84 2.67 2.81-.05 1.51-.1 3.02-.14 4.53-1.91.18-3.81.35-5.72.46-.02.43-.07 1.29-.09 1.72 1.74 1.53 3.25 3.92 5.93 3.2.14-1.34.26-2.67.36-4.01.73-1.91 1.46-3.83 2.21-5.74 2.4 1.21 2.79 3.6 2.69 6.11-.99 1.83-.93 3.92-.92 5.94.46-1.35.98-2.68 1.56-3.99-.02-.73-.05-2.18-.06-2.91l2.03.36c.44-1.2.91-2.4 1.39-3.59 1.13-.59 2.02-1.49 2.68-2.59-1.39.11-2.75.26-4.11.44.11-1.95.25-3.9.45-5.83 1.12-.43 2.25-.86 3.38-1.29.56.25 1.66.77 2.21 1.02.66 1.36 1.27 2.76 2.08 4.04 1.26.1 2.54.08 3.82-.05 1.63 1.52 3.39 3.08 5.74 3.24.41-5.6-9.26-2.88-8.42-8.43 2.63-.73 5.17.77 7.75 1.13.09-1.07.17-2.13.27-3.2-.83.31-1.65.62-2.46.93-.6-.18-1.82-.55-2.42-.74.19-3.5-3.98-5.06-3.63-8.57 1.73-.46 3.35-1.31 5.1-1.7.84 2.3 1.65 4.61 2.94 6.71.43-1.9.95-3.78 1.61-5.62 3.01-.57 4.76 2.17 7.05 3.56-.39 1.4-.79 2.79-1.2 4.18 2-1.41 3.86-3.22 6.34-3.75.99 1.25 1.63 2.93 3.19 3.64.86-1.85 1.77-3.7 3.44-4.97-.11-1.68-.22-3.35-.25-5.03.98-.78 1.95-1.57 2.91-2.38.7-.15 1.42-.28 2.15-.42.17 1.5.35 3.01.55 4.51 1.43-.75 2.87-1.51 4.33-2.24 1.08 1.32 2.11 2.69 3.09 4.1.08.68.25 2.04.33 2.73.33-.01 1-.02 1.34-.02.74-1.84 1.64-3.62 2.7-5.3.68.24 2.03.71 2.7.94.46-3.51 3.23-6.07 6.41-7.28 0 2.37-.24 4.74-.61 7.09 2.36-.65 4.12-.24 3.8 2.85 1.73-1.2 3.48-2.38 5.35-3.36 1.25 2.59 2.1 5.34 2.65 8.16 1.05.35 2.11.7 3.18 1.06.89 1.42.61 5.42 3.37 3.73.11-2-.88-3.8-1.37-5.67l2.7-.12c-.75-1.62-1.44-3.27-1.58-5.07 2.22-.11 4.41.23 6.63.49-.25-1.91-.49-3.81-.65-5.71 1.45.3 3.56-.33 4.32 1.39 1.9 2.94 1.71 8.1 6.11 8.6.18-1.73.19-3.46.01-5.18-.96-.47-1.92-.93-2.86-1.4-.43-2.18-1.3-4.25-1.62-6.44.47-1.54 2.46-1.94 3.55-2.99-.84-1.03-1.68-2.04-2.52-3.05 1.06-1.91 2.71-3.32 4.53-4.5.63-.02 1.9-.05 2.53-.06l2.68-2.86c.55-.11 1.64-.32 2.19-.43 1.16 1.5 2.35 3.01 3.24 4.71.31 1.97-1.38 3.49-2.03 5.23 1.68 1.7 3.51 3.47 3.37 6.09-1.24.56-2.47 1.13-3.7 1.69-.5 1.93-1.16 3.82-1.87 5.69l3.47-.4c-.03 1.78-.05 3.57-.04 5.36.64-.03 1.91-.1 2.55-.14.25-2.54.88-5.01 1.77-7.4 1.58-1.19 2.73-3.77 5.02-3.44 1.25 1.82 1.97 4.4 4.18 5.31 1.73-.3 3.12-1.49 4.59-2.36.02-1.29-.12-2.57-.18-3.85 1.2-1.82 3.04-2.57 5.19-2.31-.37 1.63-.85 3.23-1.29 4.84 1.87.39 3.73.84 5.61 1.27-1.08-.4-2.16-.78-3.22-1.15 2.06-2.95 3.79-7.68 8.21-7.24 1.36 1.48 2.59 3.09 3.96 4.59.38-.45 1.15-1.34 1.53-1.78-.55-3.3-2.16-6.34-2.41-9.71 3.79.56 7.35 2.06 11.14 2.62.06 1.16.12 2.32.2 3.49 1.18 1.1 2.4 2.18 3.6 3.28.97-2.76 2.47-5.35 2.77-8.31 2.76-1.54 4.43 1.1 5.14 3.39 1.43-.4 2.88-.82 4.34-1.22.03-.68.1-2.02.13-2.69.76-.03 2.27-.1 3.03-.13-.37-.97-1.12-2.92-1.49-3.89-.16-.71-.3-1.43-.42-2.14.5.01 1.52.02 2.03.03-.06-.5-.16-1.48-.22-1.97.54-.02 1.61-.04 2.14-.06.8.67 1.61 1.34 2.43 2.02h2.28c0 2.65 1.43 5.65-.81 7.82-1.57 1.35-.34 3.11.1 4.7 1.67-.54 3.31-1.17 4.96-1.79.1-1.03.22-2.05.35-3.06 2.77-1.17 2.41-4.59 3.86-6.8 1.74-1.24 3.91-1.66 5.9-2.38 0 3.3.41 6.57.97 9.83 1.02-.22 3.06-.65 4.08-.87-.98 1.88-2.19 3.61-3.39 5.35 1.54 2.21 2.8 4.61 4.63 6.61 1.98-1.75 3.3-4.87 6.38-4.75l1.4 2.28c4.31-.76 8.26 1.82 10.51 5.34 2.44-.27 2.83-2.9 3.83-4.68 2.08.19 5.45.81 4.9 3.67-.99 2.59-3.14 4.7-5.84 5.42l3.22.36c.46 1.27.89 2.55 1.48 3.79 2.27.61 4.63.14 6.94-.04-.01-.72-.02-2.14-.03-2.86 1.34-.42 2.79-1.42 4.24-.68.86 1.09 1.57 2.31 2.32 3.5 1.52.21 3.02.37 4.58.54-.03 1.66-.11 3.33-.12 5 3.11-1.36 6.39-4.67 9.95-2.53-.04.82-.1 1.65-.17 2.48-1.8 1.43-3.42 3.06-4.99 4.72.02.36.04 1.08.06 1.43 1.92 1.32 1.85 3.56 1.98 5.65h4.9c.48.96.96 1.93 1.45 2.9.48-.08 1.44-.24 1.92-.31-1.29-2.54-3.18-4.68-5.35-6.5.1-.72.3-2.18.4-2.91 1.39-.35 2.8-.37 4.23-.08 1.65 1.09 1.98 3.17 3.02 4.74 2.27.92 3.88-1.29 5.68-2.28-.53-1.55-1-3.11-1.42-4.68 1.52-.09 3.07-.11 4.62-.05 1.28 1.67 3.04 2.83 5.02 3.55 1.91 3.2 4.6 5.93 8.49 6.37-.11-.52-.34-1.57-.45-2.09l1.41.13c.07-1.32.15-2.64.24-3.96.63-.07 1.88-.22 2.51-.29-.4-.21-1.2-.64-1.6-.85-.05-2.2-.42-5.01 2.51-5.36 1.08 1.14 1.45 4.1 3.55 3.57.34-.58 1.02-1.73 1.36-2.3.39.02 1.19.07 1.59.1.01-.13.04-.38.06-.51-2.92-.08-5.78-.55-8.49-1.6.05-4.01 2.34-7.18 5.26-9.69.5 0 1.51-.02 2.01-.02l.28 2.06c1.89-1.35 3.36-3.89 6.04-3.35 1.07 1.97 2.44 3.73 3.7 5.59.25-2.14.6-4.27.97-6.4l1.88.24c.81.54 1.62 1.07 2.46 1.61.78 0 2.36-.02 3.14-.02 2.82 2.36 3.96 6.45 7.64 7.82-.35-1.36-.72-2.71-1.03-4.06 3.11-.99 7.37-1.6 8.33-5.29.83-1.23 1.82-2.36 3.15-3.08 1.35.24 2.71.48 4.08.75 1.81-.86 3.42-2.07 5.07-3.21-1.66-1.27-4.87-1.69-4.87-4.21-.42-1.7 1.42-1.97 2.49-2.65 1.27 1.37 2.54 2.72 3.9 4.02.63-4.57-3.44-7.76-4.52-11.98-2.2.47-4.38 1.05-6.6 1.3.15-1.92-.54-4.4 1.57-5.47 1.82-1.17 3.33-3.66 5.8-2.79-1.7-.44-3.78-.95-4.31-2.85-.64-1.78 1.19-2.79 2.2-3.9.88-.01 2.64-.02 3.52-.03 1.8 1.22 3.51 2.6 5.36 3.79.6-3.06-.73-5.87-1.85-8.62-.23-1.43-.4-2.86-.51-4.3 1.21-.11 2.44-.2 3.68-.29 2.05-.97 4.24-1.68 6.15-2.96 1.99 1.08 3.48 2.79 4.96 4.47 1.24-1.35 2.48-2.71 3.74-4.06 1.18-.2 2.37-.39 3.57-.57.11-1.14.22-2.28.34-3.42 3.19-1.23 5.35 1.21 7.44 3.22l1.12-2.56c.62-.05 1.86-.15 2.48-.21 1.84-1.16 3.97-.86 6.03-.64l-.25-1.24c1.74.02 3.45.37 5.04 1.17-.05-1.45-.07-2.9-.08-4.35 1.06.16 2.14.33 3.24.53 1.5 2.31 4.43 1.67 6.55 2.96 1.64.68 2.84 2.03 4.15 3.2-.05-1.92-.13-3.84-.18-5.76m38.82 15.86c1.81 2.06 3.89 4.38 6.95 3.78.96.47 1.94.92 2.95 1.35a72.02 72.02 0 0 1-1.93-2.87c-2.2-.95-4.29-2.12-6.19-3.57.67-1.03 1.7-1.92 1.92-3.21-1.4 1.34-3.92 2.21-3.7 4.52m87.1 20.01c.37 2.23 1.29 4.34 1.36 6.62-1.44.3-2.87.26-4.28-.13.26 1.83.48 3.67.66 5.52 3.07.01 3.71-3.64 6.15-4.94 1.7-1.27-.51-2.96-1.16-4.11-1.36-1.01.52-2.2.81-3.28-1.19.11-2.37.21-3.54.32m-542.43 43.84c-.26 2.31-.49 4.75-2.16 6.54.2.64.41 1.29.65 1.93l.2-1.63.54-.28c.81-.78 1.64-1.54 2.48-2.3-.02-1.48-.06-2.95-.11-4.42l-1.6.16m736.78 52.88c-.01.98 0 1.96.02 2.94.52.01 1.55.04 2.06.06-.03-1.07-.04-2.14-.04-3.2l-2.04.2m46.11 46.51c-.01 2.15-.01 4.32 0 6.48.34-.08 1.02-.26 1.36-.35.22-1.26.38-2.53.77-3.75.96-.28 2.9-.83 3.86-1.11-.72-3.27-3.76-1.68-5.99-1.27m-941.53 8.71l-1.04-.37c.19 1.62.4 3.25.66 4.87.66-1.85.49-4.2 2.41-5.25 2.46-1.78 3.25 2.33 4.95 3.51.36-.26 1.09-.76 1.46-1.02-.27-1.45.19-3.57-1.57-4.2-2.49.12-6.09-.78-6.87 2.46m944.35 13.15c-1.46-.67-2.86-1.31-4.31-1.91.15 1.43.36 2.86.58 4.29.71.01 1.44.03 2.19.06.48-2.62 2.96-2.35 5.07-2.27.88 1.14 1.64 2.14 3.48 1.1.08.36.22 1.09.29 1.45a9.5 9.5 0 0 1 2.35-2.86c.05-.36.13-1.08.18-1.44-1.34.98-2.79 1.91-4.15 2.81-1.27-1.48-2.56-2.93-3.79-4.42-1.17.68-1.74 1.86-1.89 3.19m-2.48 7.24c-.24 1.27-.49 2.55-.7 3.83-.92-.1-2.74-.29-3.66-.39-.01.51-.04 1.52-.06 2.03.45-.05 1.36-.14 1.81-.19l-.23-1.64c1.54.35 3.11.68 4.69 1.01-.58-1.57-1.25-3.1-1.85-4.65m-25.92 10.01c1.18.24 2.38.48 3.6.7-.05-.76-.15-2.3-.21-3.07-1.22.68-2.33 1.5-3.39 2.37m-495.43 35.5c-.12.81-.22 1.62-.3 2.44 1.88 1.23 3.66 2.95 6.12 2.74-.91-.99-1.87-1.91-2.84-2.81-.06-.62-.2-1.87-.27-2.5-.91.04-1.82.08-2.71.13m-25.02 67.84l.12 2.43c2.04-.3 3.18-1.91 4.16-3.56-1.45.32-2.87.72-4.28 1.13m605.72 17.57c-.02.8-.07 2.4-.1 3.2 1.78 1.09 3.73 1.72 5.86 1.6-.58-1.42-1.17-2.83-1.77-4.21-1-.15-2.99-.44-3.99-.59m-810.85 10c.05.51.16 1.51.22 2.02.66 1.46 1.32 2.95 1.94 4.46.49-.13 1.48-.37 1.97-.49.01-1.95-.91-3.65-1.65-5.38-.84-.21-1.67-.41-2.48-.61m-6.33 3.4c.07.92.15 1.85.24 2.79.5-.04 1.49-.11 1.98-.14.12-.92.25-1.83.39-2.73l-2.61.08m126.38 2.32c.07 2.79 1.05 5.9 3.86 7.05.22.25.64.75.85 1l-.04-1.86c-1.13-2.52-.93-5.26-.89-7.93-1.45.21-3.34-.09-3.78 1.74m22.08-1.4c.15 2.97.34 6.08-1.18 8.77-.78.98-1.54 1.98-2.28 3.01.76.52 1.6 1.08 2.41 1.58 1.07-1.91 3.07-2.76 4.94-3.65.05-3.31.47-6.73-1.24-9.74-.89 0-1.78.01-2.65.03m304.01-1.17c.13 1.71-.65 3.87.94 5.14 1.16.82 2.64.94 4.01 1.31.33 1.62.67 3.26.98 4.9l.97-.25c-.09 1.76-.21 3.53-.13 5.31 3.45.7 2.9-3.36 3.11-5.44l1.12.45-.17-.92c.63-.31 1.88-.93 2.5-1.24 1.7.39 3.34.76 5.09 1.09.21-3.75-3.51-6.16-6.89-6.15.08-.78.25-2.33.34-3.11-.51-.03-1.53-.1-2.04-.14-.18 1.82-.61 3.6-1.12 5.35-1.33-3.62-4.98-5.97-8.71-6.3m362.72 2.2c-.46 2.19 1.54 3.64 2.56 5.32.84-.54 1.69-1.07 2.57-1.6l.04-1.95-2.97.6c-.01-.63-.02-1.91-.03-2.54-.54.04-1.63.13-2.17.17m-485 9.8c.1.65.29 1.95.38 2.6-2.98 1.02-2.97 4.53-4.23 6.94.22-.27.64-.81.86-1.09 2.69-1.47 5.14-3.35 7.96-4.62.01-.73.05-1.45.1-2.16-1.45-.08-2.88-.17-4.29-.27-.2-.35-.59-1.05-.78-1.4m-577.62 3.62c-.04.56-.11 1.69-.15 2.25 1.71-.59 3.38-1.31 5.06-2.01-.55-.53-1.09-1.05-1.62-1.58-1.1.45-2.2.89-3.29 1.34m598.68-1.51c.03.52.09 1.56.13 2.08.52.04 1.57.13 2.09.17-.01-.55-.02-1.65-.03-2.2-.55-.01-1.64-.04-2.19-.05m486.24 6.17v1.1c-2.85-.24-5.67.11-8.49-.2 1.17 1.7 1.92 3.62 2.6 5.57 1.04-.33 2.08-.66 3.17-.98.47.21 1.42.62 1.89.83.9.93 1.9 1.76 3.07 2.4 1.31-2.25 3.88-3.44 4.71-6.03-.75.06-2.27.19-3.03.26-.05.84-.14 2.54-.18 3.38-1.24-.48-2.46-.96-3.66-1.43-.37-.64-1.13-1.91-1.5-2.54.9-.69 1.89-1.35 2.83-2.04l-1.41-.32m-1074.1 6.38c-.08.77-.25 2.31-.33 3.09-1.8.92-2.98 2.48-3.82 4.28.58-.02 1.73-.05 2.3-.07.62-.39 1.24-.77 1.86-1.14-.02-2.06 0-4.11-.01-6.16m463.42 4.61c.71 1.19 1.16 3.39 3.02 2.98 1.73.58 1.97-1.52 2.73-2.54-.6-.34-1.81-1.01-2.42-1.35-1.11.3-2.24.6-3.33.91m-456.63-.27c-.02.66-.07 1.97-.09 2.63.55-.04 1.65-.11 2.2-.15.05-.63.13-1.89.17-2.53-.57.02-1.71.04-2.28.05m953.3 4.98c-.01.63-.02 1.9-.03 2.53.94-.07 1.89-.13 2.87-.19-.02-.56-.07-1.68-.09-2.24-.94-.04-1.85-.08-2.75-.1m-971.29 10.04c-1.32.97-2.31 2.28-3.06 3.72.95.52 1.92 1.06 2.89 1.6.59-2.2 1.24-4.37 1.74-6.59-.39.32-1.18.95-1.57 1.27m960.06 5.34c.01 1.03.04 2.06.09 3.11 1.16-.5 2.32-.99 3.5-1.5.61-1.43 1.29-2.84 2.07-4.19.13-.46.38-1.39.51-1.85-.6 3.16-3.47 3.76-6.17 4.43m157.95 2.75c-.02.68-.04 2.04-.06 2.72.78.54 1.57 1.08 2.39 1.63-.1-1.3-.18-2.57-.28-3.84-.51-.13-1.54-.38-2.05-.51m-359.54 15.66c.48.19 1.45.58 1.93.77 1.4 1.8 3.31.21 4.79-.47-.05-1.03-.09-2.05-.12-3.07-2.19.98-4.35 2-6.6 2.77m54.94 1.13c-.03.69-.09 2.07-.11 2.76 1.22.35 2.44.66 3.72.97l.08-2.35a55.25 55.25 0 0 0-3.69-1.38m-80.31 3.86c-.13 1.18-.23 2.37-.29 3.58.55-.01 1.66-.01 2.21-.01.71-1.55 1.4-3.1 2.11-4.65-.42-.47-.83-.94-1.22-1.4-.93.84-1.89 1.65-2.81 2.48m322.1-.68c-.03 1.32.02 2.65.1 3.99 2.92-.96 5.93-1.17 8.97-.55-.05-.71-.16-2.13-.21-2.84-1.89-.52-3.15.98-4.34 2.18-1.04-1.67-2.58-2.66-4.52-2.78m-863.2 12.37c.38 1.24.78 2.48 1.2 3.73 1.64.72 3.35 1.33 5.19 1.33.95-1.38 1.96-2.71 2.99-4.03-2.86-1.72-6.22-1.87-9.38-1.03m22.66 7.64c.73 0 2.17.02 2.9.02.62-1.32.73-2.77.72-4.2-1.79.83-3.21 2.17-3.62 4.18m5.75 1.24c-.53 1.13-1.11 2.25-1.51 3.45.35 1.6 1.32 2.96 2.07 4.41.46-.01 1.38-.05 1.84-.07.32-1.09.67-2.17 1.04-3.24l.2-1.26c-.74-1.14-1.45-2.28-2.15-3.42-.37.03-1.12.1-1.49.13m408.87 2.94c-.05.42-.17 1.25-.22 1.66 2.18 1 4.23 2.27 6.17 3.72.39-1.91.45-4.15-1.8-4.83-.96-.61-1.89-1.23-2.8-1.85-.34.32-1.01.98-1.35 1.3m-15.38 1.89c-1 .41-1.98.82-2.95 1.25.12.88.25 1.77.4 2.67.95-.02 1.91-.03 2.88-.04l-.28-3.14c.98.02 2.96.07 3.94.09-.97-.21-1.93-.4-2.89-.58-.02-.72-.05-2.16-.07-2.88-.39.86-.73 1.74-1.03 2.63m511.54 3.35c-.06.52-.17 1.55-.22 2.07.89-.08 1.81-.16 2.75-.23.02-.56.08-1.68.1-2.24-.9.13-1.77.26-2.63.4m-476.94 1.35c-.08.5-.22 1.51-.3 2.02 1.19 1.23 2.39 2.46 3.64 3.65 1.11-1.06 1.64-2.39 1.5-3.92-1.4-.14-2.79-.26-4.17-.38-.17-.34-.51-1.03-.67-1.37m-91.25 13.6c-.03.75-.07 2.24-.09 2.99 2.57.78 4.25-.97 4.28-3.42-1.42.04-2.84.04-4.19.43m631.99.71c-.02.81-.05 2.42-.07 3.23l-1.01.01c.14.43.42 1.29.57 1.72-2.63-.68-3.48.98-3.48 3.35-.49-.17-1.47-.52-1.96-.69.01.7.05 2.1.06 2.8 1.27-.93 2.54-1.86 3.88-2.73 2.15 2.38-2.1 4.71.28 7.14.64-1.26 1.29-2.52 1.94-3.78 1.16.11 2.35.22 3.57.34.03-.5.1-1.51.14-2.01-1.64-1.46-4.83-2.54-4.33-5.22.54-.44 1.62-1.31 2.16-1.75-.08-.81-.12-1.62-.14-2.41h-1.61m-627.83 1.76l-1.17 3.02c1.02 1.79 3.34 1.8 5.08 2.48-.73-2.21-.9-5.44-3.91-5.5m-45.41 6.58c-.43 1.25-.47 2.51.13 3.73.8-.33 2.4-.98 3.2-1.3-.11-1.23-.21-2.45-.29-3.66-1.01.42-2.04.82-3.04 1.23m591.24-.2c.38 1.08.75 2.16 1.17 3.25.91-.47 2.81-.25 2.5-1.77.84-2.51-2.29-1.33-3.67-1.48m22.72 2.76c-.01.61-.02 1.84-.02 2.46.52-.08 1.58-.23 2.11-.3l-.16-1.78c-.48-.09-1.45-.29-1.93-.38m-1331.8 58.57c1.34.76 2.79 1.24 4.24 1.76-.1.74-.32 2.23-.43 2.98-1.18.05-2.35.12-3.52.19l.24 1.99c.05-.44.15-1.33.21-1.77 1.78.04 3.57.11 5.35.18-.03-2.01-.07-4-.06-5.99-2.03-.17-4.09-.05-6.03.66m796.09 2.69c-.01 1.35 0 2.72.04 4.1 1.71-.02 3.46-.05 5.19-.17-.78-1.45-1.62-2.85-2.49-4.22-.69.07-2.06.21-2.74.29m87.51 8.8c1.86-.44 2.78-2.03 3.69-3.54a59 59 0 0 0-1.84-1.52c-1.88.99-1.65 3.25-1.85 5.06m-239.69.74l.26 1.14c-1.44.3-2.86.64-4.27 1.02.09.47.28 1.41.37 1.88.83.51 1.67 1.03 2.52 1.55.66-1.03 1.28-2.1 1.9-3.15l2.2-.28c.02-.48.05-1.44.07-1.91-1.03-.09-2.05-.18-3.05-.25m795.15 11.02c-.04.73-.13 2.2-.18 2.93 1.1.6 2.2 1.21 3.34 1.82-.07-.46-.19-1.38-.26-1.84-1.01-.97-1.95-1.93-2.9-2.91m-61.77 6.26c-.18 1.24-.32 2.49-.44 3.75 2.44-.07 4.52 1.15 6.5 2.47-.65-2.9-2.36-7.14-6.06-6.22m-6.42 2.08c-.01.5-.04 1.51-.05 2.02.59.03 1.77.11 2.36.14-.08-.49-.26-1.46-.34-1.95-.49-.05-1.47-.16-1.97-.21m79.77 21.59c.15 2.12.09 4.3.56 6.4 1.09 1.51 2.51 2.73 3.68 4.2-.04-.53-.11-1.59-.15-2.12.64.27 1.91.82 2.54 1.09-1.02-1.71-2.13-3.44-4.19-3.97-.14-1.69-.23-3.37-.34-5.05-.52-.14-1.57-.41-2.1-.55m-1267.6 10.38c2.39 2.77.07 5.56-1.66 7.9-1.1.09-2.18.3-3.27.31.03-1.61-.78-2.51-2.42-2.69.2 1.15.46 2.32.74 3.48 4.91-.14 9.72 2.01 14.47-.14.71-.79 1.43-1.56 2.16-2.32l-.2-1.72c.59.1 1.78.29 2.37.38.02-.23.05-.69.06-.92-.74-.02-2.22-.08-2.96-.1-.04-.92-.11-2.76-.15-3.68l-1.05-1.17c-.04-.89-.1-2.65-.14-3.54-2.86.96-5.53 2.41-7.95 4.21m-108.16-2.01c-.5 1.56-1.12 3.24.59 4.43.82-1.27 1.49-2.6 1.96-4.02-.63-.11-1.91-.31-2.55-.41m-56.96.87c-.01.58-.02 1.74-.03 2.33.52-.01 1.56-.02 2.08-.03v-2.41c-.51.03-1.54.08-2.05.11m60.57 2.99c-.81 1.08-1.64 2.15-2.48 3.23 1.01.4 2.02.81 3.04 1.22.5-1.4.98-2.79 1.42-4.19-.49-.07-1.49-.2-1.98-.26m1256.6 8.23c-.89 1.53-1.66 3.11-2.29 4.76.42.06 1.25.17 1.66.22.85-.86 1.74-1.7 2.65-2.51-.06-.8-.09-1.58-.09-2.34-.48-.03-1.45-.1-1.93-.13m-1273.1 2.11c-.09.98-.17 1.97-.23 2.97 1.51.48 3.04.91 4.59 1.3a7.377 7.377 0 0 0-2.08-4.48c-.57.05-1.71.15-2.28.21m205.58 3.51c1.11.17 3.34.51 4.45.67-.09-1.11-.25-3.34-.34-4.46-2.54-.49-3.77 1.51-4.11 3.79m1079.9-4.29c-.48 1.42-.87 2.88-1.3 4.32l2.6.4c.34.28 1.01.85 1.35 1.13.23-2.42-.09-4.92-2.65-5.85m-1278.1 2.52c-1.31 1.54 1.75 2.74 2.69 1.5 1.27-1.64-1.7-2.52-2.69-1.5m202.06 3.5c-.54 1.65 0 2.26 1.62 1.83.52-1.71-.02-2.32-1.62-1.83m661.41 2.52c.05 1.8.22 3.6.48 5.4.82-.19 1.66-.41 2.5-.64.27-1.63-.2-3.23-.6-4.78-.59 0-1.78.02-2.38.02m-655.35 3.38c-3.36-2.07-5.32 1.22-6.67 3.73 4 1.12 6.13-2.88 9.45-4.11-.72-1.59-2.01-.56-2.78.38m94.44-.61c.08 1.5.18 3.02.31 4.55l-1.18-.03c.09.72.19 1.46.3 2.21 1.11.69 2.2 1.43 3.32 2.16l.75.55c1.27-.32 2.52-.71 3.78-1.09l-.4-2.04c-.33.22-.97.66-1.29.87-.7-.06-2.11-.19-2.81-.26-2.74-1.66-.64-4.39-.12-6.63-.67-.07-2-.22-2.66-.29m1080.8.44c.37 1.56.95 3.11 1.56 4.63l2.3.44c.09-2.49-1.96-3.95-3.86-5.07m-1230 2.55c-2.42 1.37-2.48 4.44-2.7 6.9 1.67-.54 2.68-1.98 3.72-3.29 1.25-.11 2.5-.21 3.76-.3-.11-1.66-.24-3.31-.43-4.94-1.61.1-3.37.14-4.35 1.63m712.57 1.84c-.04.61-.13 1.82-.17 2.43 1.31.53 2.64 1.02 4.01 1.5-.93-1.71-1.39-4.17-3.84-3.93m-870.84 1.36c.76.59.76.59 0 0m114.25 3.17c1.51.1 3.03.16 4.56.2.08-1.26.14-2.51.2-3.74-2.16.45-5.28.49-4.76 3.54m1162.6 1.09l-.12 2.03c1.05.04 2.12.09 3.22.14-.13-1.11-.25-2.21-.36-3.3-.93.36-1.85.74-2.74 1.13m-1130-.43c-.14 1.78-.24 3.57-.3 5.37.51.04 1.51.12 2.01.15 1.06-1.22 2.15-2.41 3.23-3.61-1.47-1.09-3.05-2.05-4.94-1.91m73.15 4.39c.15 1.44-.37 2.54-1.55 3.28.79-.34 1.59-.67 2.41-.96.06.42.18 1.28.25 1.71-.7.02-2.1.05-2.8.07.83.87 2.01 3.92 3.62 2.07 1.52-1.66 3.55-1.14 5.44-1.64l.75-.3c.43-.03 1.3-.1 1.73-.13.73 2.77-1.93 4.43-3.38 6.34.86.2 2.59.61 3.46.82-1.63 1.04-3.58.8-5.4.83l.05 1.8c1.63.29 3.26.61 4.91.9.36.73 1.08 2.19 1.44 2.93-.58.39-1.75 1.19-2.33 1.59.36.81 1.09 2.41 1.45 3.22-1.83.13-3.63.32-5.44.54-.48 1.83-.87 3.7-1.1 5.6 3.18 4.23 8.4 5.78 13.17 7.48 4.19 1.46 7.94 3.98 12.16 5.35 4.13.21 7.6 2.63 11.48 3.76.55-1.18 1.1-2.37 1.65-3.54 1.38.04 2.76.1 4.15.21.8.69 1.18 3.09 2.65 2.17 1.67-1.33 3.02-3.95 5.54-3.2 1.28 1.58 1.3 3.7 1.72 5.62.26.1.77.32 1.03.42.89-1.95 2.15-3.69 4.3-4.34.96 2.37.49 4.76-.69 6.93.48.54.96 1.09 1.45 1.65.39-.62.8-1.23 1.21-1.83.19-2.08.41-4.14.62-6.2-1.54-1.66-3.61-2.56-5.66-3.39-.6-1.23-1.22-2.4-1.92-3.54-1.88.18-4.17 1.47-5.63-.51-.63 1.43-1.1 2.92-1.62 4.42-2.25.95-2.06-1.88-2.53-3.29 2.56-1.04 3.07-3.95 5.15-5.49-.12-.67-.38-2-.51-2.67l1.25.02c.03-.54.08-1.61.11-2.14-.27.02-.82.07-1.09.09l.38 1.4-1.15-.19-.24 2.98c-1.35.05-2.69.08-4.03.11-.93-1.38-3.17-6.33-4.58-3.05-1.71 3.36 1.73 6.1.69 9.47-1.94.79-3.79 1.75-5.68 2.64-1.89-.7-3.63-1.76-5.44-2.61 1.56-5.47 6.77-8.85 8.44-14.32-.47 0-1.4-.02-1.87-.02-.9 1.23-1.81 2.46-2.71 3.69-1.53.42-2.95 1.1-4.12 2.18l-.44-.03c-.68 2.64-1.53 5.4-3.64 7.29-4.31-1.16-8.7-2.02-12.79-3.85-.03-1.83.9-3.38 1.88-4.83-.31-1.1-.6-2.19-.84-3.28 1.53-.12 3.06-.23 4.61-.33-.85-1.89-1.8-3.74-2.84-5.51-1.76 1.38-3.52 2.75-5.38 3.99-.07-1.18-.2-3.54-.27-4.72l1.22.15c-.04-.85-.08-1.68-.1-2.5-1.92-.37-3.06-1.67-3.38-3.59 4.33 1.17 8.63.62 12.99.04-.27 1.69-1.13 3.22-1.56 4.88.89 1.99 2.86 3.1 4.65 4.2.4-1.33.86-2.63 1.38-3.9.03 1.73-.07 3.48-.23 5.22 2.72-2.12 6.23.4 8.92-1.78.92-2.89 2.04-5.64 4.48-7.58-2.34-.25-4.42.87-6.53 1.67-.59-2.72.62-4.98 2.73-6.56-.32-2.26-2.8-2.21-4.46-2.93-1.51-.29-1.75-2.16-2.5-3.21l-.94-.03c-1.35 3.71-2.92 7.77-6.57 9.82.48-2.8 1.62-5.46 3.31-7.73-1.27-.96-2.54-1.88-3.8-2.81-2.52 2.02-5.56 3.28-8.7 3.97-.72-1-1.44-2-2.15-2.99-3.1-1.04-5.75 2.8-8.51-.15-.12-1.05-.25-2.09-.37-3.12-.34.32-1.02.95-1.36 1.27m344.49-.39c.05.45.16 1.33.21 1.78 2 .49 3.97 1.17 5.94 1.84.01-.59.02-1.79.03-2.39-1.99-.73-4.09-1.05-6.18-1.23m799.25 1.04c.12.4.37 1.21.49 1.61.75 1 .29 4.22 2.19 3.5.67-1.23 1.25-2.42.1-3.52-.76-.86-1.75-1.29-2.78-1.59m-1264.1 3.43c-.6 1.09-.06 2.42 1.1 2.87 1.69-1.27 3.24-3.02 2.7-5.28-1.3.75-2.64 1.44-3.8 2.41m97.31 2.41c-.75.19-2.24.58-2.99.78 1.03 1.09 1.81 3.86 3.75 2.59 1.81-2.1 2-5.1 1.49-7.71-.82 1.41-1.56 2.85-2.25 4.34m184.07-3.34c-.55 1.11-1.1 2.24-1.66 3.36-.88 1.36-1.46 2.87-1.96 4.41l1.4.32.08-2.64c2.06.47 4.08 1.14 6.19 1.52-.72-1.36-1.49-2.68-2.31-3.96 0-1.12.02-2.24.04-3.34-.44.08-1.33.25-1.78.33m-59.7 2.47c2.27 2 4.95 3.63 8.1 3.58-.01-.55-.01-1.64-.01-2.19-2.24-.86-4.48-1.69-6.74-2.45l-.1-.8c-.42.6-.84 1.23-1.25 1.86m250.64-.85c-.15.83-.44 2.47-.58 3.3-1.14-.09-2.26-.17-3.37-.25-.54.41-1.62 1.24-2.17 1.65.09 3.83-1.84 7.32-1.55 11.17-.51 1.67-.74 3.46-1.5 5.06-1.16.18-2.31.34-3.46.47-1.57 1.91-3.49 3.5-5.13 5.35-2.54 2.07-4.84 4.4-7.29 6.56-1.58-.36-3.14-.71-4.66-1.24 2.03 1.16 3.73 2.79 5.5 4.32.44 1.33.81 2.61 1.25 3.98 2.5.06 5.03-.21 7.54.08 3.93.86 6.57 4.19 10.15 5.81 5.34 2.62 9.7 6.74 14.23 10.52 2.79 2.21 4.7 5.26 7.15 7.8 2.35 1.75 4.54 3.77 7.08 5.27 6.68 1.73 15.44-1.65 16.48-9.16-.25-.39-.76-1.15-1.01-1.53a87.35 87.35 0 0 1-3.71 2.69c-.09-.84-.25-2.51-.34-3.35-.41-.43-1.23-1.29-1.64-1.73-.04-.59-.14-1.77-.19-2.36-1.54-.06-3.07-.14-4.59-.24.18-2.5 2.2-4.06 3.84-5.69-.81-.56-1.6-1.11-2.39-1.65.15-1.58.29-3.15.43-4.71-2.11.21-4.13.83-5.98 1.81-1.1.13-2.2.23-3.27.34-.06-1.98-.01-3.94.11-5.9 1.59-.58 3.2-1.14 4.86-1.55-2.39-.77-4.35-2.33-6.13-4.03.59-1.26 1.02-2.57 1.27-3.93.97-.88 2.91-2.12 3.86-.45 1.77 1.61 3.22 3.86 5.77 4.27 0-.5-.01-1.49-.02-1.99-1.92-1.45-3.28-3.61-5.37-4.76-2.71-.32-4.79 3.03-7.64 1.65 1.12 1.9 2.13 4.06.43 6.03.47 1.33.91 2.67 1.36 4.03-.87.36-1.73.74-2.58 1.12-.48 1.4-.95 2.82-1.4 4.25-1.56-.05-4.41.92-4.61-1.39-1.25-3.12 2.27-5.05 3.47-7.5-3.09-.27-5.26 2.35-7.32 4.24-1.22.01-2.43.02-3.62.02-.53-4.34 4.1-6.14 6.42-9.01.81-.04 2.44-.12 3.25-.17-.5-.57-1.51-1.71-2.01-2.28l.08-2.99c-2.34-.07-5.86 1.3-6.8-1.75-1.18-.26-2.34-.53-3.48-.8 1.26-.11 2.54-.18 3.83-.22 1.52-1.95 3.11-4.03 5.85-4.09-.27-2.66 1.12-4.91 1.68-7.37a88.22 88.22 0 0 0-7.73-8.32c-1.12-1.23-2.88-1.09-4.35-1.38m-468.88 4.24l-2.74.28c.22.23.66.71.88.95 2.54 1.85 5.79 2.25 8.84 2.64-.32-2.47-2.75-3.62-4.24-5.31-.93.46-1.85.92-2.74 1.44m455.05 4.65c1.28 1.36 2.68 2.59 4.53 3.2.21-2.87.58-5.89-1.5-8.18-.71 1.83-1.8 3.46-3.03 4.98m450.38-.75c0 1.29.04 2.6.11 3.92l1.79.16c.58-1.44 1.17-2.87 1.69-4.32-1.21.05-2.41.13-3.59.24m297.71.67c.73 1.53 1.51 1.54 2.35.05-.8-1.52-1.58-1.54-2.35-.05m-924.34.35c-2.26 1.84-4.48 3.74-6.82 5.49-.79-1.18-1.79-2.11-2.96-2.85-.32 1.25-.7 2.49-1.12 3.72-.34.17-1.03.53-1.37.7l-2.48-.04c.47-2.58 2.89-4.41 2.77-7.12-5.08.08-8.03 5.11-9.51 9.34 1.46-.23 2.81-.73 4.07-1.49.47.03 1.41.11 1.87.15l.44 2.9c.57-.63 1.69-1.88 2.25-2.51 2.63-.63 5.89-4.74 7.62-.68 2.34-2.55 6.32-3.81 7.04-7.53l-1.8-.08m607.47 1.23c.58 1.55 1.17 3.09 1.52 4.74.9 1.55 2.46 2.18 4.21 2.3.98-.99 2.07-1.89 3.23-2.68.36-.41 1.08-1.24 1.44-1.65 2.3.87 4.68 1.59 7.1 2.1-.13-1.26-.26-2.5-.38-3.73-1.58-.55-3.14-1.1-4.71-1.57-.4.65-1.2 1.95-1.59 2.6-1.33-.09-2.63-.19-3.92-.31-1.37-1.5-3.22-2.3-5.08-2.92-.46.28-1.37.84-1.82 1.12m104.29-1.05c-.8.66-1.59 1.32-2.35 2-1.49-.31-2.93-.62-4.37-.97l-1.41.77c0 .44.01 1.33.01 1.78 1.95.74 3.92 1.47 5.88 2.23.32-.99.65-1.98 1.01-2.95 1.04-.4 2.09-.78 3.16-1.15v-1.72c-.48 0-1.45.01-1.93.01m239.08-.87c.35 1.21-1.09 5.14 1.25 4.2 3.13-1.55 5.97 1.35 9.19.58a33.833 33.833 0 0 0-3.47-3.21c-.64.37-1.92 1.12-2.55 1.49-1.54-.98-2.92-2.1-4.42-3.06m-923.63 6.14c.43 1.8 1.7 3.36 3.77 2.99.25-1.16.49-2.32.71-3.48 1.39-.29 2.78-.59 4.19-.88-.08-.66-.24-1.99-.33-2.65-3.2.29-5.79 2.27-8.34 4.02m-287.93-1.61c-2.1.4-1.27 3.04-1.51 4.48-2.17-.71-4.33-1.5-6.6-1.79.54 1.79 1.94 3.01 3.34 4.17 2.6-.45 4.24 1.09 4.78 3.57.15-.37.44-1.11.59-1.48l3.81.12c.93 2.85-.64 5.2-2.35 7.33-2.11-.75-3.36-2.44-3.98-4.51-.27.07-.8.22-1.07.3-.57 3.15-3.47 2.23-5.66 1.65-.26.65-.78 1.96-1.05 2.61l-2.7-.2c-.57.3-1.7.9-2.27 1.2.01.4.03 1.19.05 1.58.67.13 2.03.39 2.71.53.32.53.96 1.61 1.28 2.14-.58 1.32-1.16 2.64-1.8 3.95-.07.48-.22 1.43-.29 1.91-1.47 1.01-2.15 2.67-2.83 4.25 2.95 3.64 8.09 4.23 12.43 3.36 2.03-.25 4.21-.86 4.9-3.03 4.31.72 7.56-2.64 10.59-5.14 2.87-3.12 7.28-5.85 7.12-10.62 2.45.13 3.74-1.88 5.06-3.57-1.07-1.54-2.27-3.12-2.04-5.1 1.01-.5 2.02-1 3.03-1.51-.07-1.13-.13-2.24-.2-3.35-.21.28-.64.85-.85 1.14-1.4.98-2.77 1.99-4.15 3-.13-2.01-.16-3.98-.19-5.97-.55-.05-1.64-.13-2.19-.18-1.35 2.61-2.84 6.04-5.99 6.73-3.76-.15-2.35-4.84-3.86-6.99-1.96-2.68-5.53-1.41-8.11-.58m551.4 1.18c-1.3.13-2.58.21-3.86.23-.11 1.04-.21 2.1-.3 3.17-1.81 1.2-3.27 2.8-4.49 4.58-2.9-1.31-5.34-3.5-8.43-4.4-.46-1.92-.87-3.87-1.22-5.8-3.39-.37-6.76.35-9.92 1.5.13 2.42.37 4.83.6 7.26 1.12 4.33 2.13 8.7 3.11 13.08 1.54 4.95 3.19 9.88 5.12 14.7 1.16 2.81 2.09 5.93 4.63 7.87 2.44-.23 4.9-.42 7.38-.54 1.48-.35 2.92-.71 4.43-1.03.1-1.44.19-2.88.27-4.31-.78-.18-2.33-.55-3.11-.73.01-.97.03-1.94.06-2.9 1.76.39 3.44 1.12 5.21 1.57 1.41.74 3.92 2.03 4.84-.06 2.16-2.39-.38-5.38-.77-7.94 2.47-.37 3.18-2.9 4.46-4.64-1.67 1.31-3.3 2.66-4.71 4.24-.06 1.52-.07 3.06-.26 4.6-.19 1.56-1.87 3.62-3.32 1.87-1.86-2.41 2.66-4.94.2-7.41-3.88 1.54-7.74 4.5-12 4.1-3.39-.89-1.54-4.43-.59-6.5-.94-.84-1.88-1.58-2.86-2.31 1.23-.21 2.47-.39 3.73-.55l-.24 3.45c2.65.25 5.23-.25 6.46-2.83 2.15-2.01 5.51-3.42 7.38-.3.25-.29.77-.87 1.02-1.16.28-1.44.65-2.84 1.06-4.23-.93-.88-1.82-1.74-2.7-2.61l-3.32-.4c.08-.88.23-2.63.31-3.51 1.5-.9 3.34-.26 5-.33l-.07.89c1.76.05 2.89 1.3 3.88 2.62.9.79 1.89 1.47 2.94 2.11.4.14 1.19.42 1.58.56-1.3-3.49-5.09-4.56-7.55-7.02.39-3.41.69-6.82.99-10.22-2.4-.19-3.51 1.85-4.94 3.33m204.85.99c1.04.06 2.09.13 3.17.2.09-1.26.18-2.51.26-3.75-2.1.11-2.89 1.8-3.43 3.55m-560.95-1.99l.02 2.02c1.33.06 2.67.13 4.01.2 3.51 3.9-1.27 9.66-5.77 9.05-.11.54-.32 1.61-.43 2.14-.47 1.45-.76 2.93-.92 4.46-.82 1.09-1.68 2.16-2.54 3.22-.54-.59-1.63-1.79-2.18-2.38-1.8.04-3.43.89-5.11 1.44.07.87.15 1.75.23 2.65h1.7c.28 1.44.64 2.94.96 4.4-1.31 2.18-.8 4.72-.87 7.13-3.6.01-4.21-3.67-5.01-6.34-.57-.12-1.71-.37-2.27-.49l.29-1.48c-1.08-.23-2.16-.42-3.22-.65 1.12.85 2.26 1.7 3.24 2.74.28 1.99-.55 3.87-1.11 5.75-2.45 1.21-5.14 1.18-7.78.83-1.5-3.71 2.06-5.84 4.13-8.28-.98-.56-1.95-1.11-2.91-1.66-1.38 3.67-4.25 6.74-4.3 10.86 2.55 1.27 5.19 2.36 8.04 2.74a44.14 44.14 0 0 0 17.59 3.29c5.15.55 9.79 4.72 15.15 2.48.55-1.14 1.12-2.27 1.69-3.39 2.39.68 3.15 2.97 4 5.03.79.02 1.59.04 2.4.07-.4-1.39-.85-2.79-1.03-4.21.76-2.07 2.03-3.94 2.4-6.14-1.46-.22-2.9-.46-4.34-.71.6-1.54 1.28-3.03 2.07-4.48-3.41-2.93-1.23-7.77-.82-11.55 3.02 1.48 6.23 2.85 8.53 5.41.95.01 2.86.04 3.81.05-.34.78-1.01 2.33-1.35 3.11.99-.6 1.97-1.22 3.04-1.72 2.23 1.5 4.25 4.09 7.28 3.26-1.23-1.46-2.73-2.73-4.72-2.92-1.21-.71-2.62-1.24-4.03-1.22.71-1.71 1.44-3.39 2.21-5.06-1.54-1.29-2.9-2.77-4.47-4-2.81.71-5.51 2.16-8.45 1.1.39-2.46 1.87-5.42-1.04-6.89-1.77.84-3.6 1.56-5.46 2.18-.53-2.75-3.94-3.52-4-6.46 1.99-1.56 4.05-3.04 6.37-4.07l-.08-1.57c-.56-.04-1.68-.11-2.24-.15-1.05.76-2.11 1.5-3.14 2.28a55.62 55.62 0 0 1-4.01-3.46c-1.88.38-3.72.89-5.56 1.39m-164.15.91c-.98 2.44-2.77 4.44-4.95 5.89.53 3.53 4.83.41 4.53-2.01.34-.29 1.02-.86 1.36-1.15.15-.91.3-1.82.45-2.71-.35-.01-1.04-.02-1.39-.02m-75.58 2.45c-.45.24-1.37.72-1.83.96-.06.53-.19 1.58-.26 2.11 1.29-.63 2.57-1.29 3.86-1.92.88.54 1.77 1.09 2.66 1.66.54-.62 1.08-1.22 1.63-1.81-.1-.63-.3-1.88-.41-2.51-1.89.45-3.76 1.03-5.65 1.51m31.49-1.39c-.32.44-.96 1.33-1.28 1.77-3.34.38-6.41 3.47-5.35 6.99.44.06 1.31.17 1.75.23 1.18-2.18 2.27-4.41 3.58-6.52 1.09-.25 2.18-.52 3.27-.79-.66-.57-1.32-1.13-1.97-1.68m191.29-.87c-.07 2.18 1.03 4.03 2.32 5.71 1.54-.04 3.11-.03 4.67.04.54 2.3 1.01 4.61 1.52 6.93.76-1.54 1.49-3.1 2.15-4.68.86-.42 1.73-.82 2.6-1.2.16-1.48.35-2.95.57-4.4-.18.31-.54.94-.72 1.26-1.77 1.05-3.49 2.17-5.33 3.1.24-2.12.87-4.13 1.89-6.01-3.25.17-6.53.2-9.67-.75m288.19.91c-.04 1.02-.11 3.07-.14 4.1-1.87.34-3.74.67-5.56 1.14 2.91 4.03 8.15-1.54 11.26 2.52.4 0 1.2.01 1.59.02-1.56-3.25-3.92-6.11-7.15-7.78m-494.09 7.78c.39.03 1.17.08 1.56.11 1.16-1.81 2.47-3.5 3.72-5.24-2.59.31-6.55 1.84-5.28 5.13m756.37-1.34c-.4.9-1.18 2.69-1.57 3.58-.86-.06-2.56-.19-3.41-.25a26.38 26.38 0 0 1-1.83-7.12c-2.77 1.88-5.43 4.73-9.03 4.56-.63-.84-1.24-1.67-1.85-2.49-.72.04-2.16.13-2.88.18.26 1.34-.01 3.08 1.47 3.82 2.83-.2 5.69-1.62 8.38.15 2.34.26 2.38 2.78 2.65 4.59.44 1.06.86 2.14 1.25 3.24-.51-.35-1.54-1.04-2.05-1.39-.49-.32-1.46-.96-1.95-1.27-1.75.09-3.52.22-5.07 1.08 1.79 1.39 3.57 3.35 5.96 3.54 2.74-.54 5.52-1.49 8.33-.65.72 2.86 4.08 2.78 6.47 2.89.93-1.33 1.9-2.62 2.88-3.91 1.27.53 2.57 1.04 3.89 1.54.04-.76.1-2.28.13-3.04 1.6-1.43 3.48-2.84 3.36-5.25-1.21.58-2.39 1.21-3.53 1.89-2.13-1.09-4.06-2.49-6.03-3.8.05-.72.14-2.17.18-2.89.42-.85.84-1.69 1.26-2.53-.59.03-1.77.1-2.36.13 0 .77 0 2.32-.01 3.09l-.46.05c-.64.32-1.94.96-2.58 1.28-1.1-1.49-2.04-3.08-2.91-4.69-2.43 1.01.39 2.63 1.31 3.67m466.32-3.47c.59 2.95 2.1 5.73 1.51 8.84 1.23.99 2.44 1.97 3.71 2.98-.89 1.54-1.03 3.29-.35 4.95-1.91 3.33 2.5 5.25 4.37 7.44 1.12-2.97-.65-5.36-2.63-7.36l-1.08.67c-.1-1.68-.17-3.36-.27-5.02.8.11 2.42.34 3.23.46.01-.27.04-.8.05-1.07-.53.08-1.6.23-2.13.3-.09-1.3-.23-2.58-.42-3.84-.89-1.51-2.86-1.71-4.21-2.54.07-3 3.35-4.21 5.72-5.14.05-.1.15-.31.2-.42-2.58.05-5.14-.19-7.7-.25m-900.18 1.62c.41 1.84 1.54 3.34 2.72 4.78-.11 1.28-.21 2.57-.3 3.87 1.21-.59 2.42-1.18 3.64-1.77-.25-3.17-2.68-6.7-6.06-6.88m399.48.5c-.11 1.08-.2 2.17-.27 3.28 1.44-.62 2.86-1.3 4.33-1.9.02-.45.07-1.36.1-1.81-1.41.11-2.79.26-4.16.43m338.74-.17c.07.95.17 1.91.29 2.88.54.05 1.63.14 2.18.19-.09-1.1-.15-2.19-.2-3.27l-2.27.2m-68.98 3.31c1.07 4.23 4.58 7.16 6.87 10.72.6-1.55 1.23-3.09 1.87-4.61-1.54-.6-3.32-.92-4.41-2.22-.48-2.49-.71-5.02-1.4-7.45-1.3.91-3.67 1.45-2.93 3.56m-787.3-.5c-1.1 1.68-1.56 4.16-3.58 4.99-1.38.14-4.13.43-5.51.58 1.97.1 3.64 1.46 5.22 2.51 1.74.18 3.31.92 4.71 1.95 1.25-.45 2.51-.85 3.79-1.21.05-1.73.51-3.52-.1-5.18-1.37-1.39-2.99-2.48-4.53-3.64m60.3 6.36c1.02-.06 2.05-.12 3.09-.17-.31-2.14-.66-4.28-1.1-6.38-.73 2.15-1.44 4.33-1.99 6.55m516.94-6.52c.71 1.29.77 3.89 2.9 3.46 2.23.12 4.32-1.42 4.87-3.6-.97.52-1.92 1.07-2.83 1.65-1.61-.68-3.24-1.24-4.94-1.51m221.78 1.5c-.1 1.98-.86 3.75-2.48 4.96.59.73 1.19 1.47 1.81 2.21.13.59.39 1.76.53 2.34 1.5-.59 2.99-1.2 4.54-1.74l.24 3.82c-.32.28-.97.84-1.29 1.12 1.09.16 2.19.33 3.31.51l-.04-1.73c-.29-.54-.89-1.6-1.19-2.13l1.18-.92c.37-1.04 1.57-2.17.8-3.29-1.98-1.57-4.08-3.08-5.17-5.43-.77.08-1.52.17-2.24.28m33.05-.14c.25 1.03.53 2.07.84 3.11.42-.29 1.24-.87 1.65-1.16-.07-.44-.21-1.31-.29-1.75l-2.2-.2m-720.64-.02c0 .65.01 1.94.01 2.59.91.69 1.82 1.4 2.74 2.14 1.39.61 2.76 1.28 3.96 2.27.15.08.46.24.61.32-.02-.2-.05-.6-.07-.81-2.74-1.79-4.88-4.3-7.25-6.51m118.28-.34c-.08 1.07-.26 3.22-.35 4.29l1.63.6c-2 .26-4.35.82-4.79 3.18 3.18 1.78 6.88 2.38 10.28 3.69-1.58-2.3.1-4.11 1.21-6.01-1.58-1.4-3.6-2.04-5.51-2.8-.83-1-1.65-1.98-2.47-2.95m510.93 1.29c-.73.73-1.45 1.48-2.16 2.23.12 1.78.33 3.56.63 5.34.08-.43.24-1.28.31-1.7l1.01.2c.14-1.6.3-3.2.47-4.77.69-.34 1.4-.67 2.12-1-.6-.07-1.78-.23-2.38-.3m-944.58 6.02c1.01-.07 2.02-.13 3.04-.18.24-.6.72-1.78.96-2.38.62-.18 1.87-.55 2.5-.73-.01-.4-.02-1.19-.03-1.59-.62-.05-1.87-.14-2.49-.18-1.55 1.5-3.02 3.1-3.98 5.06m-29.69-2.26c1 .33 2.01.65 3.04.95-.04-.76-.11-2.27-.15-3.03-1.26.25-2.54.59-2.89 2.08m362.62 6.84c1.58-.21 2.72-1.25 3.82-2.3 3.45-.1 6.92-.01 10.36-.38-3.1-2.73-7.81-4.99-11.62-2.45-.07-1.62-.13-3.23-.18-4.83-5.64.35-2.37 6.59-2.38 9.96m-9.93 1.01c1.35.8 2.71 1.63 4.05 2.49 1.47-.81 2.94-1.61 4.42-2.4.01-1.04.02-2.06.04-3.07-1.49-.85-2.55-3.15-4.47-2.73-2.07 1.26-3.22 3.51-4.04 5.71m873.87-2.78c.64.02 1.92.07 2.56.1.29-.35.88-1.05 1.17-1.4-.58-.63-1.13-1.25-1.67-1.86-.73 1.03-1.42 2.08-2.06 3.16M580 736.017c.09.26.26.78.35 1.04 1.45 1.15 2.64 2.58 3.42 4.3-1.46.24-2.81.62-4.21 1.01 1.08.21 2.16.43 3.27.64 2.01-2.3 2.79-5.09 1.4-7.9-1.42.3-2.83.6-4.23.91m-196.73 4.58c1.31.22 2.65.27 3.99.37-.1-1.12-.21-2.23-.32-3.32-1.96-.23-4.2.56-3.67 2.95m335.06.91c.04-1.54-.01-3.07-.17-4.59-1.34 1.4-1.93 3.51.17 4.59m544.7-4.17c-1.1 1.43 1.32 3.15 2.37 1.7 1.07-1.44-1.38-3.19-2.37-1.7m-725.59 1.27c-.38 2.46-.64 5.1 1.55 6.81.22-1.7.39-3.39.6-5.07l.56-1.52c-.91-.09-1.81-.16-2.71-.22m678.36-.84c1.07 2.9 3.33 5.04 5.23 7.41 3.37-.38 6.54-4.28 4.06-7.39-3.11.11-6.21.03-9.29-.02m70.07 1.97c1.5 1.35 2.95 2.78 4.18 4.41-.06-1.56-.08-3.1-.09-4.63-1.39.05-2.75.13-4.09.22m16.35-.14c-.01 1.3.01 2.62.07 3.94l2.32.56c1.18-.88 2.4-1.74 3.63-2.58-.01-.47-.04-1.42-.05-1.9-2.01-.04-4-.06-5.97-.02m-20.11 4.12c.04.92.11 1.85.2 2.8.49 0 1.48.02 1.97.02.07-.96.16-1.91.27-2.85-.61.01-1.83.02-2.44.03m-346.8 1.84c-5.24 8.62-2.15 18.91-2.24 28.32 4.16-2.1 4.29-7.59 5.54-11.59.78-5.3 4.02-11.12 1.16-16.27-.8-2.09-2.98-.76-4.46-.46m404.07 3.63c1.51.64 2.91 2.1 4.7 1.7.42-2-1.08-3.3-2.39-4.49-.79.92-1.58 1.83-2.31 2.79m-776.34-1.45a83.67 83.67 0 0 0-.06 3.19c.64-.02 1.9-.04 2.54-.06-.07-1.04-.13-2.06-.19-3.08-.58-.01-1.72-.04-2.29-.05m-301.66.76a48.64 48.64 0 0 1-.59 3.55c-.79-.57-1.57-1.14-2.34-1.71-1.23.27-2.05 1.37-3.08 2.01-.11.49-.34 1.48-.45 1.97-.66.77-1.3 1.57-1.94 2.36 1.88-.05 3.76-.13 5.64-.02.48 2.68 2.08 4.51 4.81 5.49-3.05-1.83-2.77-4.37-.82-5.86.48.71 1.44 2.11 1.92 2.82 2.39-.41 3.79-2.58 5.4-4.13-2.78.56-5.28-.04-6.81-2.5-.01-1.33-.02-2.65-.02-3.96-.43-.01-1.29-.02-1.72-.02m521.96 2.09c1.1.08 2.2.15 3.33.21-.23-2.03-1.4-3.3-3.53-3.36.05 1.04.12 2.09.2 3.15m382.38-1.07c.71.04 2.12.11 2.82.15.22 3.5-3.12 4.87-5.35 6.81.09.62.26 1.87.35 2.5 2.32-1.37 3.88-3.64 6.02-5.24 2.35-.54 3.14 2.01 4.47 3.33.04-1.26.12-3.78.15-5.04-2.8.18-4.74-1.77-6.48-3.64-.69.36-1.33.75-1.98 1.13m89-1.15c-.33.5-.99 1.51-1.32 2.01.25.45.76 1.35 1.01 1.79 1.7-.19 3.34-.75 4.53-2.06-1.42-.64-2.79-1.23-4.22-1.74m214.91.94c1.03 1.99 2.34 3.84 3.73 5.63 1.84-.74 3.6-1.61 5.64-1.84.07 1.15.2 2.31.37 3.48.54.03 1.63.09 2.17.11l.04-.97-1.18.54c-.19-1.64-.85-3.43-2.24-4.37-2.86-.87-5.63-1.93-8.53-2.58m-244.43 3.32c.21.67.63 2.01.83 2.69-.98.5-1.94 1.03-2.89 1.59-.09 1.26-.15 2.54-.19 3.83l1.13-.13c1.06 4.55 2.44 9.1 4.82 13.15.86 2.27 1.1 4.68 1.53 7.06 1.03.02 2.08.03 3.15.05-.8-3.72-3.29-6.83-3.65-10.64-1.07-1.57-2.01-3.22-2.91-4.86 1.26-1.47 2.72-2.75 3.98-4.22-2.26-.18-3.25 1.83-4.48 3.27-2.13-1.92-1.11-4.92-1.72-7.35 1.52-1.08 3.86-1.72 3.66-4.01-1.1-.16-2.19-.3-3.26-.43m8.12 1.14c-.86.89-1.68 1.81-2.5 2.73 1.39.02 2.82.03 4.24.03.08-.96.17-1.91.28-2.84l-2.02.08m-320.94 4.41c-.13 1.79-.23 3.58-.23 5.4 1.77-1.14 3.14-4.08 5.61-2.83.24.63.73 1.9.97 2.54 3.17-2.38 1.5-6.1 1.24-9.3-2.62 1.23-5.11 2.7-7.59 4.19m-285.51-4.25c.05 2.12.26 4.26.42 6.4 3.03.36 6.02 1.05 8.97 1.87.03-.55.1-1.64.13-2.19-3.76-1.02-6.31-4.1-9.52-6.08m38.31 1.57c.03.5.11 1.51.15 2.01 1.68.48 3.49.68 5.05 1.53 1.62 1.8 3.03 3.77 4.79 5.46.59-3.51-2.35-6.46-4.57-8.82-1.81-.29-3.63-.16-5.42-.18m-54.45 2.42c.94 2.28 2.6 4.14 4.38 5.81 1.59.21 3.25-.18 4.88-.14.26-1.97 2.01-2.01 3.6-2.14.51 1.83 1.37 3.47 3.44 3.9l-.12-4.82c-1.09.02-2.17.06-3.24.13-.86-.45-1.71-.9-2.55-1.34-1.36 1.69-3.07 2.64-5.17 1.56l-.06-4.11c-1.73.33-3.46.71-5.16 1.15m67.78-1.42c-.21 1.48-.4 2.97-.52 4.48 2.48-.32 4.71-1.49 6.94-2.56.17 1.82.33 3.68.52 5.53 1.31-.43 2.61-.89 3.9-1.38-.91-1.49-1.82-2.98-2.68-4.48-2.8-.13-5.43-1.1-8.16-1.59m789.62 7.46c1.45.92 2.92 1.85 4.34 2.89-1.36 1.58-3.04 3.16-2.33 5.48 2.17-1.72 2.34-4.63 3.27-7.04-.71-1.23-2.67-2.31-1.55-3.86.61-.3 1.84-.91 2.46-1.22.53-1.79-.64-3.1-1.82-4.26-.54 3.11-1.95 5.95-4.37 8.01m17.22-6.06c-.03.74-.04 1.49-.02 2.25 2.16 1.77 4.29 3.66 6.87 4.83-.44-1.69-1-3.35-1.64-4.95-.19-.65-.57-1.95-.75-2.6-1.52.09-3 .26-4.46.47m-595.37 5.43c-4.6 8.66-10.52 16.58-14.39 25.63-.61 1.74-1.25 3.49-2.1 5.14-3.57 7.38-5.09 15.46-7.47 23.25-.58 2.5-1.21 5.33.09 7.73 2.23 4.54 4.21 9.33 7.55 13.2 2.57-2.87 3.92-6.68 6.95-9.16 1.98-1.71 3.62-3.76 5.39-5.69 2.55-2.74 6.67-2.22 9.68-4.16 4.15-2.44 7.95-5.48 11.63-8.57 4.63-5.32 12.44-7.67 15.03-14.72 2.91-2.56 4.96-5.95 6.48-9.48-2.35-2.55-4.06-5.7-6.94-7.71-1.73-1.24-2.35-3.37-3.3-5.15-3.69-.16-5.57 4.23-9.3 4.25v-3.38c-.69.04-2.07.12-2.76.17-1.81-2.89-2.73-7.01-6.75-7.39.57-1.43 1.05-2.95 1.69-4.34-1.39.51-2.76 1.04-4.12 1.6-.13-.28-.41-.86-.55-1.14-.9-1.78-1.89-3.47-3.06-5.05a22.697 22.697 0 0 0-3.75 4.97m414.58-4.4c-.8 1.46-.37 3.14-.33 4.73.6.06 1.8.16 2.4.22.7-1.24 1.36-2.49 1.82-3.83-1.32-.44-2.54-.96-3.89-1.12m-611.71 4.52c.53-.34 1.6-1.03 2.14-1.38 1.16-.12 2.34-.22 3.53-.32a79.7 79.7 0 0 0 .06 5.78c.22-1.03.42-2.05.6-3.07l.91.08v-2.72c-2.01-.35-4.16-.24-5.94-1.35-.4 1.01-.87 1.97-1.3 2.98m583.36-1.69c-.73 1.02-.67 2.03.18 3.02 2.8 1.61 2.31-4.21-.18-3.02m95.77-.49c-.32 3.01.71 6.19 4.12 6.63 1.48 2.41 3.6 4.83 3.16 7.88-1.76.8-3.27-.38-4.73-1.09-.51.51-1 1.03-1.47 1.56.77.29 2.3.85 3.07 1.14 1.01 2.28-1.81 2.78-3.13 3.88 1.37 2.34 2.75 4.7 3.68 7.28.33.04.98.1 1.31.13l.6-2.95c1.82-.46 3.64-.9 5.51-1.28.11.83.33 2.5.45 3.34l2.61-.44c-.45-.74-1.37-2.21-1.82-2.95.59-2.29-.89-4.17-1.64-6.18.8-.86 1.68-1.63 2.66-2.31-.3-1.68-.97-3.26-1.35-4.9-.38-2.22 2.43-2.83 3.68-4.04.02-2.04-2.6-2.15-3.96-2.8-.21.74-.62 2.23-.82 2.98-1.76-.05-3.48-.46-4.65-1.84-.42.42-1.24 1.25-1.66 1.66-.48-.08-1.44-.25-1.92-.34-.98-1.98-.76-5.4-3.7-5.36m21.23 1.38c-.85 1.53-1.81 2.99-2.56 4.58.44.92 1.32 1.11 2.65.59.8-1.59 1.55-3.2 2.2-4.85-.58-.08-1.72-.24-2.29-.32m86.84 5.07c2.71.98 3.27-2.38 3.05-4.32-1.7.95-3.86 1.97-3.05 4.32m-571.22-.41l2.72.88.6.48c.86-.11 1.27-.81 1.25-2.13 2.99-.81 4.71 1.92 6.7 3.57.19-1.54.83-3.16.13-4.63-2.16-1.89-4.54.61-6.78 1l-.84.12c-1.86.67-2.45-.93-3.17-2.22-.22.97-.44 1.93-.61 2.93m-325.98 2.35c.65.07 1.95.22 2.6.29-.19-.82-.57-2.47-.77-3.29l3.25.24c.17.63.5 1.89.67 2.52 2.2.67 4.41 1.37 6.71 1.6-.05-1.41-.06-2.82-.32-4.2-2.3-.04-4.59.19-6.88.11l.29-1.56c-2.58.05-5.42 1.4-5.55 4.29m910.23-3.95c.09.39.28 1.18.37 1.58.81 1.45 1.62 2.92 2.11 4.54.21 2.42-1.57 3.28-3.67 3.23-.87-1.03-1.64-1.96-2.5-2.94-.08.58-.25 1.75-.34 2.33.99.43 1.99.88 3.01 1.34.58.8 1.18 1.61 1.8 2.43 1.19 1.63 2.65 3.05 4.08 4.51l.16-.77c-1.15-1.69-3.34-3.33-2.57-5.62.66-1.17 3.5-2.41 1.81-3.88-1.78-1.84-2.44-4.26-2.18-6.76-.52 0-1.56.01-2.08.01m-217.59 1.18c.66.96.45 3.56 2.15 3.11 1.8.16 1.49-2.14 2-3.26-1.4.03-2.78.08-4.15.15m-91.01.69c-.97 2.72 1.67 4.03 3.31 5.59.21-.75.61-2.26.82-3.01-1.38-.86-2.23-3.23-4.13-2.58m-17.95 2.62c-.33 1.2-.47 2.43-.64 3.68.51-.09 1.54-.26 2.05-.35.1-.69.31-2.08.41-2.77l1.04-1.16c-.98.16-1.93.36-2.86.6m53.9.86c.13 1.5.5 3 .26 4.54-.78.54-3.51-.47-2.69 1.09 2.03.44 4.15.14 6.24.19-.02-2.64.17-5.68-2.31-7.33-.38.38-1.13 1.13-1.5 1.51m-547.72-.9c.62 1.3 1.3 2.58 2.01 3.87.21 1.22.47 2.49.73 3.74.51-.34 1.52-1 2.03-1.33-.57-1.45-1.18-2.88-1.78-4.29-.98-.7-1.98-1.37-2.99-1.99m-91.28 1.5c-.09 1.93-.16 3.87-.26 5.82-1.35.19-2.7.4-4.04.64.92 1.76 3.1 3.02 3.12 5.14-1.47 1.39-3.06 2.65-4.51 4.07 1.45.08 2.91.19 4.38.32.47-1.31.97-2.6 1.48-3.87.95 1.01 1.89 2.04 2.83 3.1.5-.05 1.5-.14 2-.19-.84-1.43-1.66-2.87-2.42-4.32.79-1.39 1.7-2.72 2.21-4.23-1.52-1.94-3.25-3.85-3.4-6.44l-1.39-.04m22.72 3.05l.12 1.83c.79.36 2.38 1.09 3.17 1.46-.28-.83-.84-2.48-1.12-3.3-.54 0-1.62.01-2.17.01m877.07-.14c-.78 2.28-1.19 4.67-1.13 7.09.67-.2 1.36-.38 2.07-.56-.09-1.76-.13-3.52-.07-5.26.36-.2 1.08-.59 1.44-.79l-2.31-.48m-886.66 5.57c-.25 2.73-3.13 3.72-5.49 3.88.17.16.5.49.67.66 2-.47 4.35-1.79 6.18-.22.52-.52 1.05-1.03 1.6-1.53 1.11.2 2.26.51 3.41.59 1.75-2.73-2.36-2.23-3.88-2.98.06-2.08 1.39-3.64 2.49-5.28-2.97-.4-4.63 2.29-4.98 4.88m689.42-4.47c-.16.99-.06 1.96.29 2.91 1.21.24 2.46.41 3.73.51-.84-1.58-1.58-4.64-4.02-3.42m63.61 4.73c2.63 1.22 5.27 2.79 6.1 5.8 1.83-.67 3.23-2.05 4.58-3.42-.18-.67-.31-1.31-.44-1.95-.74.32-2.23.96-2.97 1.29-2.16-.53-2.81-2.83-3.47-4.6-1.75.24-2.83 1.58-3.8 2.88m136.03-.41c.24.74.73 2.23.98 2.98.8-.72 1.61-1.43 2.46-2.11.4-.86.82-1.7 1.26-2.52-1.6.51-3.16 1.06-4.7 1.65m-301.64 2.22c.66 2.55 1.97 4.83 3.71 6.81.3-.4.9-1.2 1.21-1.6.05-.29.17-.86.22-1.15-1.23-.6-2.4-1.25-3.57-1.87.84-1.35 1.7-2.68 2.6-3.99l-1.61-2.57c-1.08 1.29-2.39 2.59-2.56 4.37m-5.12 1.32c.01.63.01 1.89.01 2.53.55-.07 1.65-.2 2.2-.27.04-.51.14-1.55.19-2.06l-2.4-.2m50.01-1.56c.1 2.76.69 5.49 1.28 8.2 1.06-.15 2.14-.29 3.23-.42-.79-2.87-1.01-6.9-4.51-7.78m256.43 3.71c.05.4.16 1.2.22 1.59.43.11 1.3.32 1.74.43.11-.61.33-1.84.45-2.46l-2.41.44m-206.11 7.84c.9.04 1.82.09 2.76.15.43-.97.91-1.91 1.37-2.86-.71-.16-2.12-.5-2.83-.66a123.6 123.6 0 0 0-1.3 3.37m202.17-1.46c2.52.78 5 1.89 5.14 4.93 1.4-.52 2.68-2.17 4.31-1.34 2.18 2.19 4.37 5.03 7.71 5.3-1.37-2.64-3.49-4.84-6.21-6.07-.15-.95-.28-1.88-.38-2.79-3.54-.21-7.31-2.35-10.57-.03m-118.94 9.26c-.01.54-.03 1.63-.03 2.17 2.55 1.23 4.92 3.14 7.91 3.14-.11-.82-.2-1.62-.28-2.42-2.59-.88-4.82-2.7-7.6-2.89m138.38 6.26c1.55-.7 1.92-3.81.01-4.3-1.63.52-1.03 3.42-.01 4.3m-111.59-1.91c-1.18 1.35-2.44 2.74-2.19 4.7.49-.77.98-1.53 1.48-2.29 2.15-.12 4.81-.17 5.63-2.63-1.68 0-3.3.1-4.92.22m-167.83 3.13c-.47.66-.93 1.34-1.37 2.03 1.02.04 2.05.08 3.1.13.08-.59.23-1.77.31-2.36l-2.04.2m151.98 2.24c-.12 1.3-.24 2.61-.3 3.94.84-.56 1.68-1.13 2.56-1.68l-.24-2.71c-.5.11-1.51.34-2.02.45m-118.49 2.49c-2.49.32-4.97.58-7.46.64l-.36 1.36c.65.25 1.96.76 2.62 1.01 1.91.05 4.5.94 5.29-1.63l2.67-.08c-.08-.65-.24-1.94-.31-2.59-.84.41-1.66.84-2.45 1.29m-46.55 1.27c-.13 1-.25 2.01-.35 3.03.51-.11 1.52-.33 2.02-.44.07-.94.15-1.86.24-2.77-.48.05-1.43.14-1.91.18m-627.06.67c-.43 1.17-.84 2.38-1.2 3.6 1.39-.25 2.77-.63 4.06-1.23l-.08-2.23c-.94-.07-1.87-.11-2.78-.14m606.77 10.66c2.23-.88 4.21-2.2 3.41-4.93-1.98.96-3.1 2.78-3.41 4.93m70.49-4.51c-.28 1.74-1.73 5.16 1.04 5.41 2.08-.37.34-2.98.63-4.34-.42-.27-1.26-.81-1.67-1.07m5.38 3.13c-.18.44-.55 1.32-.73 1.76 1.52 3.88 4.22-3.51.73-1.76z"/><path d="M282.76 316.36l2.57.08c-.03.53-.11 1.57-.14 2.1-.55-.01-1.65-.02-2.2-.03-.05-.54-.17-1.61-.23-2.15zM1351.6 329.45l4.32.16c.13 1.39.27 2.78.42 4.18-.67-.01-2.01-.05-2.68-.06-.79-1.37-1.69-2.75-2.06-4.28zM1404 404.42l1.73.14c-.41 3.44 2.74 4.75 5.67 4.38-3.36.79-4.98 4.42-8.42 5.21l-1.08-2.96c1.36-2.03 2.15-4.3 2.1-6.77zM1022.7 417.98c1.38-1.1 3.16 1.31 1.78 2.37-1.45 1.18-3.25-1.31-1.78-2.37zM1442 456c1.27-.19 2.58-.35 3.9-.49.14.73.43 2.18.58 2.91 1.43-1.05 2.87-2.08 4.41-3 4 3.76-2.87 6.1-2.17 10.04-1.52.84-3.06 1.63-4.59 2.38-2.7-3.28-2.08-7.88-2.13-11.84zM1471.9 507.4c1.24.09 2.52.22 3.81.36.6 2.29 1.22 4.57 1.77 6.89l-2.23.24c.01.56.02 1.67.03 2.22-1.16-.14-3.47-.44-4.62-.59 1.53-2.87 1.67-5.96 1.24-9.12zM100.71 604.94c1.11 2.95 1.78 6.09 1.54 9.27-1.31.45-2.6.93-3.89 1.44-2.65-.81-4.63-3.23-2.52-5.77.03-.22.08-.67.1-.89 2.61.14 3.67-2.1 4.77-4.05zM91.369 648.84l2.14-.04c-.09 1.76-1.1 2.98-2.58 3.83-.43-.02-1.28-.05-1.7-.07l.06-2.39c.52-.33 1.56-1 2.08-1.33zM1575.9 699.93c.87-.93 1.79-1.81 2.76-2.66 2.19 1.46 3.79 4.61 1.28 6.62-.66-.35-1.98-1.03-2.64-1.37-.35-.65-1.05-1.95-1.4-2.59zM410.32 706.43c1.21.05 2.46.04 3.64.47.09.95.29 2.86.38 3.82-1.05-.01-3.15-.01-4.2-.02.05-1.43.1-2.86.18-4.27zM746.04 710.73c1.09-.11 2.2-.2 3.31-.26-.08 1.36-.17 2.74-.29 4.13-1.08.04-2.15.09-3.22.13.03-1.34.1-2.68.2-4zM298.43 720.93c2.22-.1 5.82-2.58 6.74.7.77 2.37-2.29 2.54-3.7 3.45-1.28-1.19-2.5-2.45-3.04-4.15zM826.78 725.2c-.05-3.1 3.79-3.96 6.04-2.42l.44 2.56c1.23.08 2.48.19 3.73.32.09 1.5.3 3 .16 4.53-.72 1.66-2.44 2.62-3.69 3.86-2.13-1.62-2.61-3.99-2.09-6.5-1.71-.29-5.2.4-4.59-2.35zM499.05 730.46c-.45-3.68 3.85-3.8 6.41-3.68.24 3.2-3.88 6.74-6.41 3.68zM1024.8 732.26c.53-2.82 3-5.14 5.64-6.06.43.47 1.28 1.39 1.71 1.85.37 3.25 1.2 8.41-3.05 9.42-2.66-.34-3.41-3.13-4.3-5.21zM840.77 731.55c3.2-1.4 6.02 1.72 3.78 4.59-.49.32-1.46.96-1.94 1.27-.96-1.84-1.69-3.78-1.84-5.86zM1155.4 736.68c-3.02-1.67-.59-6.22 2.38-5.84.96.74 1.88 1.54 2.77 2.42-1.65 1.2-2.98 3.21-5.15 3.42zM1164.5 730.45l1.62-.19c.44 2.66.86 5.32 1.06 8.02-1.66.83-2.8 2.24-3.58 3.9-1.59-.41-3.25-.68-4.45-1.83.14-2.29 1.8-4.14 1.97-6.43 1.49-.79 3.17-1.55 3.38-3.47zM729.12 736.95c.91-1.4 2.19-2.35 3.87-2.67-.12 2.25.89 5.83-2.48 5.63-.46-1-.92-1.99-1.39-2.96zM1188.3 744c-.17-2.25-2.89-5.82.14-7.22 1.48-.35 2.5.93 3.56 1.74.07.83.23 2.49.31 3.32 2.58.2 5.41.55 7.51-1.32.24 1.17.63 2.35 1.45 3.31-.64-.06-1.92-.19-2.56-.25-.62 1.1-1.28 2.18-1.97 3.24-1.74.36-2.97-1.2-4.47-1.7-1.08 1.52 1.09 2.41 1.68 3.62 1.48 1.78-.04 4.98-2.25 5.27-1.72.48-3.06-.86-4.35-1.66-1.24 2.06-2.97 3.73-5.39 2.34.3-1.97 1.1-3.79 2.38-5.31.63.4 1.89 1.21 2.52 1.61 1.12-1.45 2.44-2.82 2.92-4.66-2.25-.29-3.5 1.57-5.17 2.54-1.41-.6-1.65-2.31-2.45-3.42 0-.46.02-1.37.02-1.83 2.03.12 4.06.27 6.12.38zM222.72 739.17c1.79-1.4 2.77.44 3.58 1.81 2.01-.13 4.02-.22 6.04-.2.05 1.97-.03 3.96-.21 5.95-.56.06-1.68.17-2.23.23-.77-.63-1.54-1.25-2.3-1.84-.63.96-1.26 1.94-1.89 2.92-.72-.07-2.16-.22-2.88-.3.12-1.38.26-2.75.42-4.1l-2.08.29c.04 2.18-.8 4.16-1.85 6.03.83 1.88 1.1 3.9.91 5.95-3.25.54-4.7-2.93-7.5-3.77-.69-2.65 1.5-4.08 3.09-5.72 1.41-3.1 3.69-5.92 6.9-7.25zM235.45 741.21c1.72-1.13 3.8-.7 5.71-.47.08 1.5.12 3 .13 4.52-.95.59-1.89 1.19-2.83 1.81-.59-.08-1.78-.22-2.38-.3-.57-1.8-1.5-3.69-.63-5.56zM1196.8 756.27c.43-.61 1.29-1.84 1.73-2.46h3.09c.34.6 1.03 1.81 1.38 2.42-1.13 1.16-1.27 4.57-3.45 3.68-2.01.16-1.88-2.47-2.75-3.64zM1144.1 757.72l2.24.12c.33 3.43-2.37 5.95-3.68 8.88.35.03 1.04.1 1.38.13l-.17-1.08c1.92-.55 3.84-1.57 5.92-.99 1.74.78 1.26 2.7 1.31 4.25-2.46 1.67-4.35 3.98-5.3 6.82-.88-.37-2.65-1.11-3.54-1.47-.41 1.18-.81 2.37-1.21 3.57-1-.17-1.98-.33-2.94-.48.01-3.18.09-6.44 1.51-9.36.13-1.67.23-3.33.39-4.98 1.25-1.88 2.45-3.82 4.09-5.41z"/><path d="M1133.9 765.8c1.66-.72 3.38-1.21 5.24-1.1-.01.95-.01 2.85-.01 3.8-1.68.42-3.36.87-5.01 1.29-.06-1-.17-3-.22-3.99zM1195.2 771.97c.97-.14 1.96-.26 2.97-.37.32 1.31.67 2.64.96 3.98-1.3 0-2.57 0-3.83-.01a87.48 87.48 0 0 1-.1-3.6zM1022.6 781.41c.56-2.87 2.58-5.01 5.07-6.42.38.77 1.14 2.3 1.52 3.07.64-.1 1.93-.28 2.57-.38.5 1 1 2.01 1.53 3.03 1.61.73 3.23.92 4.74-.31-1.45-.66-2.88-1.33-4.29-2.01.46-.69 1.38-2.07 1.83-2.76 2.67.44 2.94 2.58 2.57 4.9l3.35.36c.39 2.47-2.15 3.13-3.75 4.26 4.14.29 1.93 4.59 1.82 7.03l-.56-2.57c-1.86.86-3.17 2.39-4.32 4.02-1.69.14-3.36.24-5.02.26.04-1.75.57-3.39 1.54-4.85-1.56-2.29-3.04-4.63-4.4-7.03-1.41-.2-2.82-.4-4.2-.6zM567.08 801.53c1.39.36 2.78.75 4.18 1.17-.05 1.78-.12 3.58-.21 5.38-1.43-.47-2.82-1-4.19-1.58-.03-1.67.05-3.33.22-4.97zM1401.5 815.98c1.25-.07 2.53-.12 3.83-.15-.1.69-.31 2.09-.41 2.79l-2.12-.01c1.24 1.18 2.58 2.43 3.9 3.61.19.84.39 1.7.62 2.57-1.41.29-2.8.58-4.17.87-.91 1.34-3.12 3.1-4.47 1.38-2.16-1.97-1.49-4.9-1.29-7.46 2.41-.97 4.5-2.78 7.41-2.11l-3.3-1.49zM1371.5 829.74c.61-.35 1.84-1.05 2.45-1.41 1.41 1.89 1.22 3.97.19 6.01.8 1.64 1.53 3.3 2.19 5.03-1.31.48-2.61.91-3.91 1.31-1.44-1.13-1.3-2.98-1.46-4.57-1.76-1.18-3.47-2.4-5.13-3.67.39-.73 1.16-2.19 1.54-2.93 1.36.06 2.74.13 4.13.23zM1255.7 833.06c.68-.46 1.37-.91 2.08-1.34 1.13.74 2.29 1.47 3.47 2.2-.5 1.12-.98 2.25-1.44 3.4-2.47 2.56-2.8 7.84-7.29 7.52-.39-1.59-.83-3.18-1.26-4.73.27-.54.82-1.61 1.1-2.15.94-.44 1.9-.86 2.88-1.27.14-1.22.3-2.43.46-3.63z"/></svg>