<?xml version="1.0" standalone="no"?>
<!DOCTYPE svg PUBLIC "-//W3C//DTD SVG 20010904//EN"
 "http://www.w3.org/TR/2001/REC-SVG-20010904/DTD/svg10.dtd">
<svg version="1.0" xmlns="http://www.w3.org/2000/svg"
 width="270.000000pt" height="270.000000pt" viewBox="0 0 270.000000 270.000000"
 preserveAspectRatio="xMidYMid meet">
<metadata>
Created by potrace 1.11, written by Peter Selinger 2001-2013
</metadata>
<g transform="translate(0.000000,270.000000) scale(0.100000,-0.100000)"
fill="#000000" stroke="none">
<path d="M1615 2688 c-76 -28 -255 -174 -255 -208 0 -4 -4 -10 -8 -12 -4 -1
-42 -48 -85 -103 -134 -175 -229 -275 -397 -419 -53 -45 -208 -152 -292 -201
-245 -143 -333 -228 -415 -403 -52 -109 -91 -274 -85 -357 15 -230 114 -424
307 -605 205 -192 495 -329 780 -368 58 -8 311 -8 370 0 119 16 331 76 365
104 8 6 26 15 39 19 12 4 39 18 60 31 20 13 45 30 55 37 43 28 144 118 181
162 22 26 46 53 53 60 6 8 12 16 12 18 0 3 16 28 35 57 60 89 137 273 159 382
3 13 8 34 11 48 5 22 11 57 20 115 2 11 4 20 5 20 4 0 10 82 14 180 6 189 -24
358 -118 650 -12 37 -90 222 -108 253 -10 18 -18 37 -18 43 0 5 -5 15 -10 22
-6 7 -33 51 -61 98 -96 162 -233 303 -349 357 -43 20 -74 26 -145 28 -50 2
-103 -1 -120 -8z"/>
</g>
</svg>
